<svg width="334" height="251" viewBox="0 0 334 251" fill="none" xmlns="http://www.w3.org/2000/svg">
<g clip-path="url(#clip0_641_4467)">
<path d="M147.928 242.314C229.232 242.314 295.141 237.429 295.141 231.403C295.141 225.377 229.232 220.492 147.928 220.492C66.6239 220.492 0.714111 225.377 0.714111 231.403C0.714111 237.429 66.6239 242.314 147.928 242.314Z" fill="#E2E2E2"/>
<path d="M209.617 44.7251L211.2 45.6645L212.039 46.1611L214.421 47.5703C214.421 47.5703 259.509 25.0098 253.751 4.40876C251.98 -1.9326 242.773 -3.59008 233.479 14.2731C224.863 30.8278 209.61 44.7184 209.61 44.7184L209.617 44.7251Z" fill="#FFF0C9"/>
<path d="M211.2 45.6645L212.039 46.1611C221.508 39.7526 229.547 31.4854 234.801 25.4326C241.042 18.2457 244.806 12.5351 244.847 12.4747C244.981 12.2734 244.927 11.9983 244.719 11.8641C244.518 11.7299 244.243 11.7835 244.108 11.9916C244.068 12.052 240.324 17.7223 234.123 24.8622C228.842 30.9418 220.736 39.2762 211.2 45.6578V45.6645Z" fill="#FFEAB5"/>
<path d="M201.356 50.08L202.859 52.1401L203.658 53.2339L205.913 56.3274C205.913 56.3274 275.453 52.3079 279.392 23.0168C280.606 13.998 269.823 6.87149 248.276 24.473C228.305 40.786 201.356 50.0867 201.356 50.0867V50.08Z" fill="#FFF6E0"/>
<path d="M202.859 52.1334L203.658 53.2272C219.172 50.2612 233.888 44.1614 243.86 39.3433C255.697 33.626 263.602 28.4388 263.683 28.3852C263.965 28.1973 264.045 27.8215 263.857 27.5396C263.669 27.2578 263.294 27.1773 263.012 27.3652C262.931 27.4189 255.087 32.5725 243.317 38.2562C233.298 43.0944 218.454 49.2412 202.866 52.1401L202.859 52.1334Z" fill="#FFF0C9"/>
<path d="M117.167 196.703L115.577 197.636L114.731 198.126L112.335 199.521C112.335 199.521 67.3823 176.693 73.2673 156.118C75.0791 149.784 84.2926 148.187 93.4792 166.11C101.995 182.719 117.167 196.703 117.167 196.703Z" fill="#FFF0C9"/>
<path d="M115.577 197.629L114.731 198.119C105.303 191.657 97.3108 183.343 92.0968 177.256C85.9031 170.029 82.1653 164.298 82.1318 164.238C81.9976 164.03 82.058 163.762 82.2593 163.627C82.4606 163.493 82.7357 163.554 82.8699 163.755C82.9102 163.815 86.6144 169.506 92.7745 176.686C98.0154 182.799 106.075 191.18 115.57 197.622L115.577 197.629Z" fill="#FFEAB5"/>
<path d="M125.394 202.098L123.884 204.152L123.079 205.239L120.804 208.319C120.804 208.319 51.2907 203.877 47.5261 174.565C46.3652 165.54 57.1958 158.48 78.629 176.209C98.4986 192.643 125.387 202.105 125.387 202.105L125.394 202.098Z" fill="#FFF6E0"/>
<path d="M123.877 204.152L123.072 205.239C107.571 202.179 92.8954 195.992 82.9572 191.113C71.1535 185.322 63.2822 180.088 63.2017 180.034C62.9198 179.846 62.846 179.471 63.0339 179.189C63.2218 178.907 63.5976 178.833 63.8794 179.021C63.96 179.075 71.7709 184.275 83.5142 190.026C93.506 194.925 108.309 201.159 123.877 204.152Z" fill="#FFF0C9"/>
<path d="M210.409 168.123C219.199 156.81 227.708 144.476 232.385 135.645C238.492 124.11 240.941 114.856 239.659 108.152C239.572 107.709 239.143 107.414 238.7 107.501C238.257 107.588 237.962 108.018 238.049 108.461C240.283 120.177 230.084 140.704 208.536 167.868L210.402 168.123H210.409Z" fill="#FFF0C9"/>
<path d="M236.969 124.908C236.969 124.908 242.652 128.726 248.98 118.48C248.98 118.48 238.626 115.097 236.969 124.908Z" fill="#FFF6E0"/>
<path d="M233.982 130.364C233.982 130.364 238.116 124.901 228.232 118.016C228.232 118.016 224.279 128.169 233.982 130.364Z" fill="#FFF6E0"/>
<path d="M239.089 113.433C239.089 113.433 244.806 109.662 237.78 99.8715C237.78 99.8715 230.667 108.125 239.089 113.433Z" fill="#FFF6E0"/>
<path d="M228.312 141.516C228.312 141.516 232.365 147.032 241.787 139.523C241.787 139.523 233.184 132.84 228.312 141.516Z" fill="#FFF6E0"/>
<path d="M224.427 146.616C224.427 146.616 229.439 141.953 220.897 133.457C220.897 133.457 215.247 142.771 224.427 146.616Z" fill="#FFF6E0"/>
<path d="M219.797 154.119C219.797 154.119 223.749 159.715 233.305 152.387C233.305 152.387 224.829 145.543 219.797 154.119Z" fill="#FFF6E0"/>
<path d="M112.778 97.657C101.149 89.2958 89.4999 79.8676 82.5143 72.721C73.3948 63.3801 68.4291 55.2001 67.7581 48.4091C67.7111 47.9595 68.0399 47.5569 68.4962 47.5166C68.9458 47.4696 69.3484 47.7985 69.3887 48.2548C70.5563 60.1255 86.1447 76.9285 114.496 96.8853L112.778 97.657Z" fill="#FFF0C9"/>
<path d="M75.0725 63.7156C75.0725 63.7156 70.704 68.99 61.7321 60.9442C61.7321 60.9442 70.7107 54.7706 75.0725 63.7156Z" fill="#FFF6E0"/>
<path d="M79.4812 68.1042C79.4812 68.1042 73.972 64.0377 81.5078 54.6364C81.5078 54.6364 88.1712 63.2526 79.4812 68.1042Z" fill="#FFF6E0"/>
<path d="M69.7981 53.3144C69.7981 53.3144 63.2487 51.3147 67.2146 39.9405C67.2146 39.9405 76.3676 45.8457 69.7981 53.3144Z" fill="#FFF6E0"/>
<path d="M88.0773 77.1969C88.0773 77.1969 85.7488 83.6389 74.5893 79.0959C74.5893 79.0959 80.9508 70.2516 88.0773 77.1969Z" fill="#FFF6E0"/>
<path d="M93.2443 80.9883C93.2443 80.9883 87.1177 77.935 92.9088 67.3728C92.9088 67.3728 100.961 74.7073 93.2443 80.9883Z" fill="#FFF6E0"/>
<path d="M99.8072 86.8801C99.8072 86.8801 97.5994 93.3623 86.3594 89.0408C86.3594 89.0408 92.5532 80.0757 99.8072 86.8801Z" fill="#FFF6E0"/>
<path d="M215.3 27.4927V218.962C215.3 224.961 210.435 229.826 204.436 229.826H109.088C106.075 229.826 103.344 228.598 101.377 226.618C99.4246 224.652 98.2234 221.948 98.2234 218.962V27.4927C98.2234 21.4935 103.089 16.6285 109.088 16.6285H204.436C206.208 16.6285 207.885 17.0512 209.368 17.8095C212.891 19.6079 215.307 23.2651 215.307 27.4927H215.3Z" fill="#ED6E2B"/>
<path d="M211.254 27.4927V218.962C211.254 224.961 206.389 229.826 200.39 229.826H105.041C102.028 229.826 99.2971 228.598 97.331 226.618C95.3782 224.652 94.1771 221.948 94.1771 218.962V27.4927C94.1771 21.4935 99.0421 16.6285 105.041 16.6285H200.39C202.161 16.6285 203.839 17.0512 205.322 17.8095C208.845 19.6079 211.261 23.2651 211.261 27.4927H211.254Z" fill="#F98946"/>
<path d="M213.314 63.7156H214.817C216.22 63.7156 217.354 62.5815 217.354 61.1791V48.9661C217.354 47.5636 216.22 46.4295 214.817 46.4295H213.314V63.7223V63.7156Z" fill="#FFB700"/>
<path d="M94.1704 63.7156H92.9893C91.8888 63.7156 90.9963 62.8231 90.9963 61.7226V48.4091C90.9963 47.3086 91.8888 46.4161 92.9826 46.4161H94.1637V63.7089L94.1704 63.7156Z" fill="#FFB700"/>
<path d="M94.1704 86.4036H92.9893C91.8888 86.4036 90.9963 85.5111 90.9963 84.4106V71.0971C90.9963 69.9966 91.8888 69.1041 92.9893 69.1041H94.1704V86.3969V86.4036Z" fill="#FFB700"/>
<path d="M205.832 26.8351V219.619C205.832 222.27 203.685 224.404 201.048 224.404H104.384C102.404 224.404 100.706 223.209 99.9749 221.491C99.7333 220.914 99.5924 220.284 99.5924 219.619V26.8351C99.5924 24.1911 101.733 22.0505 104.377 22.0505H201.041C201.356 22.0505 201.665 22.0773 201.96 22.1377C202.296 22.2048 202.618 22.2988 202.926 22.433C204.403 23.0705 205.497 24.426 205.765 26.0499C205.812 26.3049 205.832 26.5666 205.832 26.8351Z" fill="white"/>
<path d="M181.869 188.946V206.245C181.869 207.42 180.842 208.366 179.574 208.366H128.38C127.112 208.366 126.085 207.413 126.085 206.245V188.946C126.085 187.771 127.112 186.825 128.38 186.825H179.574C180.842 186.825 181.869 187.778 181.869 188.946Z" fill="#FFD261"/>
<path d="M149.659 194.663C150.048 194.663 150.39 194.717 150.686 194.824C150.974 194.932 151.223 195.086 151.417 195.28C151.612 195.475 151.759 195.71 151.86 195.978C151.954 196.247 152.008 196.542 152.008 196.864C152.008 197.186 151.961 197.475 151.86 197.75C151.759 198.018 151.612 198.253 151.417 198.448C151.223 198.642 150.981 198.797 150.686 198.904C150.39 199.011 150.055 199.065 149.659 199.058H147.451V202.092H146.391V194.65H149.666L149.659 194.663ZM149.391 198.186C149.672 198.186 149.914 198.159 150.109 198.099C150.303 198.038 150.464 197.945 150.592 197.83C150.719 197.716 150.806 197.575 150.867 197.414C150.921 197.253 150.954 197.079 150.954 196.878C150.954 196.676 150.927 196.508 150.867 196.347C150.806 196.186 150.719 196.045 150.592 195.931C150.464 195.817 150.303 195.723 150.109 195.663C149.914 195.603 149.672 195.569 149.391 195.569H147.445V198.186H149.391Z" fill="#FFCA42"/>
<path d="M153.679 199.951L152.86 202.098H151.746L154.658 194.656H155.846L158.758 202.098H157.644L156.826 199.951H153.685H153.679ZM155.255 195.764L154.001 199.085H156.49L155.255 195.764Z" fill="#FFCA42"/>
<path d="M162.107 202.098H161.033V199.052L158.174 194.663H159.403L161.577 198.253L163.751 194.663H164.979L162.12 199.052V202.098H162.107Z" fill="#FFCA42"/>
<path d="M148.639 194.663C149.028 194.663 149.37 194.717 149.666 194.824C149.954 194.932 150.203 195.086 150.397 195.28C150.592 195.475 150.739 195.71 150.833 195.978C150.934 196.247 150.981 196.542 150.981 196.864C150.981 197.186 150.934 197.475 150.833 197.75C150.739 198.018 150.592 198.253 150.397 198.448C150.203 198.642 149.961 198.797 149.666 198.904C149.37 199.011 149.035 199.065 148.639 199.058H146.431V202.092H145.371V194.65H148.646L148.639 194.663ZM148.371 198.186C148.652 198.186 148.894 198.159 149.089 198.099C149.283 198.038 149.444 197.945 149.572 197.83C149.699 197.716 149.786 197.575 149.847 197.414C149.907 197.253 149.934 197.079 149.934 196.878C149.934 196.676 149.907 196.508 149.847 196.347C149.793 196.186 149.699 196.045 149.572 195.931C149.444 195.817 149.283 195.723 149.089 195.663C148.894 195.603 148.652 195.569 148.371 195.569H146.425V198.186H148.371Z" fill="white"/>
<path d="M152.659 199.951L151.833 202.098H150.719L153.632 194.656H154.819L157.732 202.098H156.618L155.792 199.951H152.652H152.659ZM154.236 195.764L152.981 199.085H155.47L154.236 195.764Z" fill="white"/>
<path d="M161.087 202.098H160.013V199.052L157.155 194.663H158.383L160.557 198.253L162.731 194.663H163.959L161.1 199.052V202.098H161.087Z" fill="white"/>
<path d="M148.257 81.5184H99.8944V167.097H148.257V81.5184Z" fill="#E9E2E9"/>
<path d="M163.335 74.8482V163.775C163.335 167.882 160.651 171.385 156.946 172.626C156.02 172.935 155.034 173.102 154.007 173.102C148.874 173.102 144.68 168.908 144.68 163.775V74.8482C144.68 69.7147 148.874 65.5207 154.007 65.5207C155.034 65.5207 156.02 65.6885 156.946 65.9972C158.336 66.4602 159.584 67.2453 160.597 68.2586C162.288 69.9496 163.335 72.2781 163.335 74.8482Z" fill="#FFB700"/>
<path d="M163.335 74.8482V163.775C163.335 167.882 160.651 171.385 156.947 172.626C153.242 171.391 150.558 167.882 150.558 163.775V74.8482C150.558 70.7414 153.242 67.2386 156.947 65.9972C158.336 66.4602 159.584 67.2453 160.597 68.2586C162.288 69.9496 163.335 72.2781 163.335 74.8482Z" fill="#FFBF1C"/>
<path d="M161.778 82.5787V156.172C161.778 159.48 159.094 162.164 155.786 162.164H30.8037C29.314 162.164 27.9451 161.614 26.8982 160.715C25.6232 159.614 24.8113 157.984 24.8113 156.172V82.5787C24.8113 79.2704 27.4955 76.5862 30.8037 76.5862H155.786C159.094 76.5862 161.778 79.2704 161.778 82.5787Z" fill="#F98946"/>
<path d="M161.778 91.7183H24.8113V108.031H161.778V91.7183Z" fill="#FFBF1C"/>
<path d="M149.042 139.825H122.515C120.944 139.825 119.67 141.099 119.67 142.671V148.267C119.67 149.839 120.944 151.112 122.515 151.112H149.042C150.613 151.112 151.887 149.839 151.887 148.267V142.671C151.887 141.099 150.613 139.825 149.042 139.825Z" fill="#FFDA7D"/>
<path d="M42.5067 121.224H33.4745C33.0779 121.224 32.7565 121.546 32.7565 121.942V126.66C32.7565 127.056 33.0779 127.378 33.4745 127.378H42.5067C42.9033 127.378 43.2248 127.056 43.2248 126.66V121.942C43.2248 121.546 42.9033 121.224 42.5067 121.224Z" fill="#FFDA7D"/>
<path d="M60.947 121.224H51.9148C51.5182 121.224 51.1968 121.546 51.1968 121.942V126.66C51.1968 127.056 51.5182 127.378 51.9148 127.378H60.947C61.3436 127.378 61.6651 127.056 61.6651 126.66V121.942C61.6651 121.546 61.3436 121.224 60.947 121.224Z" fill="#FFDA7D"/>
<path d="M79.3806 121.224H70.3483C69.9518 121.224 69.6303 121.546 69.6303 121.942V126.66C69.6303 127.056 69.9518 127.378 70.3483 127.378H79.3806C79.7771 127.378 80.0986 127.056 80.0986 126.66V121.942C80.0986 121.546 79.7771 121.224 79.3806 121.224Z" fill="#FFDA7D"/>
<path d="M97.8142 121.224H88.7819C88.3854 121.224 88.0639 121.546 88.0639 121.942V126.66C88.0639 127.056 88.3854 127.378 88.7819 127.378H97.8142C98.2107 127.378 98.5322 127.056 98.5322 126.66V121.942C98.5322 121.546 98.2107 121.224 97.8142 121.224Z" fill="#FFDA7D"/>
<path d="M116.248 121.224H107.215C106.819 121.224 106.497 121.546 106.497 121.942V126.66C106.497 127.056 106.819 127.378 107.215 127.378H116.248C116.644 127.378 116.966 127.056 116.966 126.66V121.942C116.966 121.546 116.644 121.224 116.248 121.224Z" fill="#FFDA7D"/>
<path d="M134.681 121.224H125.649C125.252 121.224 124.931 121.546 124.931 121.942V126.66C124.931 127.056 125.252 127.378 125.649 127.378H134.681C135.078 127.378 135.399 127.056 135.399 126.66V121.942C135.399 121.546 135.078 121.224 134.681 121.224Z" fill="#FFDA7D"/>
<path d="M153.115 121.224H144.083C143.686 121.224 143.365 121.546 143.365 121.942V126.66C143.365 127.056 143.686 127.378 144.083 127.378H153.115C153.511 127.378 153.833 127.056 153.833 126.66V121.942C153.833 121.546 153.511 121.224 153.115 121.224Z" fill="#FFDA7D"/>
<path d="M161.778 83.0752H24.8113V86.2023H161.778V83.0752Z" fill="#FFDA7D"/>
<path d="M46.5397 134.283H37.4068C34.8385 134.283 32.7565 136.365 32.7565 138.933V148.066C32.7565 150.634 34.8385 152.716 37.4068 152.716H46.5397C49.108 152.716 51.19 150.634 51.19 148.066V138.933C51.19 136.365 49.108 134.283 46.5397 134.283Z" fill="#FFDA7D"/>
<path d="M113.671 142.932H57.1891C56.3071 142.932 55.592 143.647 55.592 144.529V146.415C55.592 147.297 56.3071 148.012 57.1891 148.012H113.671C114.553 148.012 115.268 147.297 115.268 146.415V144.529C115.268 143.647 114.553 142.932 113.671 142.932Z" fill="#FFDA7D"/>
<path opacity="0.2" d="M111.034 76.5862L26.8982 160.722C25.6232 159.621 24.8113 157.991 24.8113 156.179V130.357L78.582 76.5862H111.034Z" fill="white"/>
<path opacity="0.2" d="M155.531 76.5862L69.9524 162.171H54.0688L139.654 76.5862H155.531Z" fill="white"/>
<path d="M70.355 224.639C70.355 224.639 70.355 224.686 70.355 224.712C70.355 225.632 69.8652 226.511 68.966 227.336C68.7445 227.538 68.503 227.732 68.2346 227.927C67.483 228.47 66.5502 228.98 65.4564 229.457C65.2216 229.557 64.9733 229.658 64.725 229.759C63.8795 230.094 62.9467 230.403 61.9469 230.691C61.7053 230.759 61.4637 230.832 61.2154 230.893C60.3364 231.128 59.4103 231.342 58.4373 231.544C58.1957 231.591 57.9542 231.644 57.7059 231.685C56.8134 231.852 55.8873 232.007 54.9278 232.141C54.6862 232.174 54.4379 232.208 54.1963 232.242C53.2971 232.356 52.3711 232.463 51.4182 232.55C51.1766 232.57 50.9283 232.591 50.6868 232.611C49.7808 232.684 48.8548 232.745 47.9086 232.792C47.6671 232.805 47.4188 232.812 47.1772 232.825C46.2646 232.859 45.3385 232.879 44.3991 232.886C44.238 232.886 44.0703 232.886 43.9092 232.886C43.8287 232.886 43.7482 232.886 43.6676 232.886C42.7282 232.886 41.8021 232.866 40.8895 232.832C40.6412 232.825 40.3997 232.812 40.1581 232.805C39.4669 232.772 38.7757 232.738 38.098 232.691C37.8564 232.671 37.6148 232.658 37.38 232.637C37.1317 232.617 36.8901 232.597 36.6485 232.577C35.7023 232.497 34.7696 232.396 33.8704 232.282C33.6221 232.248 33.3805 232.221 33.139 232.181C32.5619 232.101 31.9982 232.02 31.4479 231.926C31.0789 231.866 30.7165 231.805 30.3608 231.738C30.1126 231.691 29.871 231.644 29.6294 231.597C28.6564 231.403 27.7303 231.195 26.8513 230.967C26.6768 230.92 26.509 230.873 26.3346 230.826C26.2608 230.806 26.1869 230.785 26.1198 230.765C25.7239 230.651 25.3347 230.537 24.9589 230.416C24.3885 230.235 23.8517 230.047 23.3417 229.853C23.0934 229.759 22.8451 229.658 22.6103 229.557C21.6708 229.168 20.8454 228.745 20.1475 228.303C20.0402 228.235 19.9328 228.168 19.8322 228.095C19.7047 228.007 19.5839 227.92 19.4631 227.833C19.3356 227.739 19.2148 227.638 19.094 227.544C18.0338 226.658 17.4567 225.706 17.4567 224.706C17.4567 224.639 17.4567 224.565 17.4634 224.498V218.848H19.094H19.8254H22.6036H23.335H25.5025H26.1131H26.8446H29.6227H30.3541H33.1322H33.8637H36.6418H37.3732H40.1514H40.8828H43.6609H44.3924H47.1705H47.9019H50.68H51.4115H54.1896H54.921H57.6992H58.4306H61.2087H61.9402H64.7183H65.4497H68.2278H68.9593H70.3416L70.3483 224.706L70.355 224.639Z" fill="#FFDA7D"/>
<path d="M19.8053 218.854V228.101C19.6778 228.014 19.5571 227.927 19.4363 227.84C19.3088 227.746 19.188 227.645 19.0672 227.551V218.854H19.7986H19.8053Z" fill="#FFD261"/>
<path d="M23.3149 218.848V229.853C23.0666 229.759 22.8184 229.658 22.5835 229.557V218.848H23.3149Z" fill="#FFD261"/>
<path d="M26.8312 218.841V230.96C26.6567 230.913 26.4889 230.866 26.3145 230.819C26.2407 230.799 26.1668 230.779 26.0997 230.759V218.841H26.8312Z" fill="#FFD261"/>
<path d="M30.3408 218.834V231.732C30.0925 231.685 29.8509 231.638 29.6093 231.591V218.834H30.3408Z" fill="#FFD261"/>
<path d="M33.8503 218.834V232.282C33.602 232.248 33.3604 232.221 33.1188 232.181V218.834H33.8503Z" fill="#FFD261"/>
<path d="M37.3666 218.827V232.637C37.1183 232.617 36.8767 232.597 36.6351 232.577V218.827H37.3666Z" fill="#FFD261"/>
<path d="M40.8761 218.821V232.832C40.6278 232.825 40.3862 232.812 40.1447 232.805V218.821H40.8761Z" fill="#FFD261"/>
<path d="M44.3857 218.814V232.886C44.2246 232.886 44.0569 232.886 43.8958 232.886C43.8153 232.886 43.7348 232.886 43.6542 232.886V218.814H44.3857Z" fill="#FFD261"/>
<path d="M47.8953 218.814V232.799C47.6537 232.812 47.4054 232.819 47.1638 232.832V218.821H47.8953V218.814Z" fill="#FFD261"/>
<path d="M51.4115 218.807V232.557C51.1699 232.577 50.9216 232.597 50.6801 232.617V218.807H51.4115Z" fill="#FFD261"/>
<path d="M54.9211 218.801V232.148C54.6795 232.181 54.4312 232.215 54.1896 232.248V218.801H54.9211Z" fill="#FFD261"/>
<path d="M58.4307 218.794V231.544C58.1891 231.591 57.9475 231.644 57.6992 231.685V218.794H58.4307Z" fill="#FFD261"/>
<path d="M61.9402 218.787V230.691C61.6986 230.759 61.457 230.832 61.2087 230.893V218.787H61.9402Z" fill="#FFD261"/>
<path d="M65.4565 218.787V229.457C65.2216 229.557 64.9733 229.658 64.725 229.759V218.787H65.4565Z" fill="#FFD261"/>
<path d="M68.966 218.78V227.336C68.7445 227.538 68.503 227.732 68.2346 227.927V218.78H68.966Z" fill="#FFD261"/>
<path d="M70.3483 218.848C70.3483 222.995 58.5044 226.363 43.8958 226.363C41.9028 226.363 39.9568 226.303 38.0845 226.182C35.7359 226.034 33.5013 225.793 31.4345 225.477C29.5891 225.196 27.8713 224.853 26.3211 224.464C25.8447 224.343 25.3884 224.223 24.9455 224.088C22.9995 223.525 21.3688 222.867 20.1274 222.149C19.8858 222.008 19.6577 221.867 19.4497 221.72C18.1545 220.834 17.4432 219.861 17.4432 218.848C17.4432 218.754 17.4432 218.66 17.4634 218.566C17.9734 214.546 29.616 211.332 43.8958 211.332C47.4121 211.332 50.7673 211.526 53.8339 211.882C54.4245 211.949 55.0083 212.023 55.5787 212.104C58.0682 212.452 60.3364 212.909 62.3092 213.452C62.7454 213.573 63.1614 213.694 63.5708 213.821C65.0135 214.278 66.2617 214.781 67.275 215.325C68.3218 215.888 69.1337 216.492 69.6504 217.123C70.0329 217.586 70.2611 218.069 70.3215 218.559C70.3349 218.653 70.3416 218.747 70.3416 218.841L70.3483 218.848Z" fill="#FFE9B0"/>
<path opacity="0.3" d="M69.6572 217.136L38.0913 226.182C35.7426 226.034 33.508 225.793 31.4412 225.477L67.2817 215.331C68.3285 215.895 69.1405 216.499 69.6572 217.13V217.136Z" fill="white"/>
<path opacity="0.3" d="M55.5786 212.11L20.1274 222.156C19.8858 222.015 19.6577 221.874 19.4496 221.726L53.8339 211.889C54.4245 211.956 55.0083 212.03 55.5786 212.11Z" fill="white"/>
<path opacity="0.3" d="M63.5708 213.828L26.3211 224.464C25.8447 224.343 25.3884 224.223 24.9455 224.088L62.3092 213.452C62.7454 213.573 63.1614 213.694 63.5708 213.821V213.828Z" fill="white"/>
<path d="M65.0404 218.848C65.0404 218.941 65.0337 219.029 65.0203 219.123C64.5103 222.303 55.2297 224.853 43.8958 224.853C32.5619 224.853 23.2813 222.31 22.7714 219.123C22.7579 219.029 22.7512 218.941 22.7512 218.848C22.7512 215.539 32.2331 212.842 43.8958 212.842C55.5586 212.842 65.0404 215.533 65.0404 218.848Z" fill="#FFD261"/>
<path d="M65.0202 219.123C64.5102 222.303 55.2297 224.853 43.8958 224.853C43.6408 224.853 43.3925 224.853 43.1375 224.853C40.6076 224.827 38.1919 224.679 35.964 224.417C33.7362 224.162 31.6895 223.8 29.9179 223.35C29.4683 223.236 29.0321 223.122 28.6161 222.995C26.7238 222.431 25.2072 221.767 24.1939 221.022C23.9523 220.847 23.7309 220.666 23.5497 220.478C23.1135 220.042 22.8518 219.586 22.7713 219.123C23.2813 215.942 32.5618 213.392 43.8958 213.392C45.3318 213.392 46.7276 213.432 48.0898 213.513C48.781 213.553 49.4587 213.6 50.1298 213.66C52.8542 213.902 55.3438 214.291 57.4777 214.801C57.9407 214.909 58.3836 215.029 58.8131 215.15C60.4773 215.62 61.8663 216.163 62.9064 216.767C63.9197 217.358 64.6042 217.995 64.8927 218.673C64.9598 218.821 65.0001 218.975 65.0269 219.123H65.0202Z" fill="#FFDA7D"/>
<path opacity="0.2" d="M64.886 218.673L43.1442 224.847C40.6144 224.82 38.1986 224.672 35.9708 224.41L62.8997 216.761C63.913 217.351 64.5975 217.989 64.886 218.666V218.673Z" fill="white"/>
<path opacity="0.2" d="M50.1298 213.66L24.1939 221.022C23.9524 220.847 23.7309 220.666 23.5497 220.478L48.0898 213.513C48.781 213.553 49.4587 213.6 50.1298 213.66Z" fill="white"/>
<path opacity="0.2" d="M58.8063 215.15L29.9179 223.357C29.4683 223.243 29.0321 223.129 28.6161 223.001L57.471 214.808C57.934 214.915 58.3769 215.036 58.8063 215.157V215.15Z" fill="white"/>
<path d="M46.8349 222.256V223.256H42.3725V222.303C39.2052 222.25 36.1385 222.008 34.2394 221.673L36.6418 220.129C38.7287 220.478 41.5136 220.706 43.9494 220.706C46.0699 220.706 46.8282 220.579 46.8282 220.364C46.8282 219.572 34.5817 220.21 34.5817 217.868C34.5817 216.855 37.1786 215.996 42.3658 215.794V214.815H46.8282V215.774C49.1702 215.835 51.4517 216.009 53.2501 216.298L51.0021 217.834C48.8212 217.519 46.7611 217.365 44.8285 217.365C42.6476 217.365 41.9497 217.546 41.9497 217.76C41.9497 218.519 54.1963 217.888 54.1963 220.203C54.1963 221.176 51.7268 222.022 46.8215 222.263L46.8349 222.256Z" fill="#FFD261"/>
<path d="M46.7074 221.928V222.927H42.245V221.975C39.0777 221.921 36.011 221.679 34.1119 221.344L36.5143 219.8C38.6012 220.149 41.3861 220.378 43.8219 220.378C45.9424 220.378 46.7007 220.25 46.7007 220.035C46.7007 219.243 34.4542 219.881 34.4542 217.539C34.4542 216.526 37.0511 215.667 42.2383 215.465V214.486H46.7007V215.445C49.0427 215.506 51.3242 215.68 53.1226 215.969L50.8746 217.505C48.6937 217.19 46.6336 217.036 44.701 217.036C42.5201 217.036 41.8222 217.217 41.8222 217.432C41.8222 218.19 54.0688 217.559 54.0688 219.874C54.0688 220.847 51.5993 221.693 46.694 221.934L46.7074 221.928Z" fill="#FFE9B0"/>
<path d="M72.0192 215.372C72.0192 215.372 72.0192 215.418 72.0192 215.445C72.0192 216.365 71.5294 217.244 70.6302 218.069C70.4087 218.27 70.1672 218.465 69.8987 218.66C69.1472 219.203 68.2144 219.713 67.1206 220.183C66.8857 220.284 66.6375 220.384 66.3892 220.485C65.5437 220.82 64.6109 221.129 63.6111 221.418C63.3695 221.485 63.1279 221.559 62.8796 221.619C62.0005 221.854 61.0745 222.069 60.1015 222.27C59.8599 222.317 59.6183 222.364 59.3701 222.411C58.4776 222.579 57.5515 222.733 56.5919 222.867C56.3504 222.901 56.1021 222.934 55.8605 222.968C54.9613 223.082 54.0353 223.189 53.0824 223.276C52.8408 223.297 52.5925 223.317 52.3509 223.337C51.445 223.411 50.519 223.471 49.5728 223.518C49.3312 223.531 49.083 223.538 48.8414 223.552C47.9288 223.585 47.0027 223.605 46.0633 223.612C45.9022 223.612 45.7344 223.612 45.5734 223.612C45.4929 223.612 45.4123 223.612 45.3318 223.612C44.3924 223.612 43.4663 223.592 42.5537 223.558C42.3054 223.552 42.0638 223.538 41.8223 223.531C41.1244 223.498 40.4399 223.464 39.7622 223.417C39.5206 223.404 39.279 223.384 39.0441 223.364C38.7959 223.344 38.5543 223.323 38.3127 223.303C37.3665 223.223 36.4338 223.122 35.5346 223.008C35.2863 222.974 35.0447 222.948 34.8031 222.907C34.226 222.827 33.6624 222.746 33.1121 222.652C32.743 222.592 32.3807 222.525 32.025 222.464C31.7767 222.417 31.5352 222.371 31.2936 222.324C30.3206 222.129 29.3945 221.921 28.5155 221.693C28.341 221.646 28.1732 221.599 27.9988 221.552C27.9249 221.532 27.8511 221.512 27.784 221.491C27.3881 221.377 26.9989 221.263 26.6231 221.149C26.0527 220.968 25.5159 220.78 25.0059 220.586C24.7576 220.492 24.5093 220.391 24.2745 220.29C23.335 219.894 22.5096 219.478 21.8117 219.035C21.7044 218.968 21.597 218.901 21.4963 218.827C21.3688 218.74 21.2481 218.653 21.1273 218.566C20.9998 218.472 20.879 218.371 20.7582 218.277C19.6979 217.391 19.1208 216.438 19.1208 215.439C19.1208 215.372 19.1208 215.298 19.1276 215.231V209.58H20.7582H21.4896H24.2678H24.9992H27.1667H27.7773H28.5088H31.2869H32.0183H34.7964H35.5279H38.306H39.0374H41.8156H42.547H45.3251H46.0565H48.8347H49.5661H52.3442H53.0757H55.8538H56.5852H59.3633H60.0948H62.8729H63.6043H66.3825H67.1139H69.892H70.6235H72.0058L72.0125 215.439L72.0192 215.372Z" fill="#FFDA7D"/>
<path d="M21.4695 209.587V218.834C21.342 218.747 21.2212 218.66 21.1005 218.572C20.973 218.478 20.8522 218.378 20.7314 218.284V209.587H21.4628H21.4695Z" fill="#FFD261"/>
<path d="M24.9791 209.58V220.586C24.7308 220.492 24.4825 220.391 24.2477 220.29V209.58H24.9791Z" fill="#FFD261"/>
<path d="M28.4886 209.574V221.693C28.3142 221.646 28.1464 221.599 27.9719 221.552C27.8981 221.532 27.8243 221.512 27.7572 221.491V209.574H28.4886Z" fill="#FFD261"/>
<path d="M32.0049 209.567V222.464C31.7567 222.417 31.5151 222.371 31.2735 222.324V209.567H32.0049Z" fill="#FFD261"/>
<path d="M35.5145 209.567V223.015C35.2662 222.981 35.0246 222.954 34.783 222.914V209.567H35.5145Z" fill="#FFD261"/>
<path d="M39.024 209.56V223.37C38.7758 223.35 38.5342 223.33 38.2926 223.31V209.56H39.024Z" fill="#FFD261"/>
<path d="M42.5403 209.554V223.565C42.2921 223.558 42.0505 223.545 41.8089 223.538V209.554H42.5403Z" fill="#FFD261"/>
<path d="M46.0499 209.547V223.619C45.8888 223.619 45.721 223.619 45.56 223.619C45.4795 223.619 45.3989 223.619 45.3184 223.619V209.547H46.0499Z" fill="#FFD261"/>
<path d="M49.5594 209.547V223.531C49.3179 223.545 49.0696 223.552 48.828 223.565V209.554H49.5594V209.547Z" fill="#FFD261"/>
<path d="M53.069 209.54V223.29C52.8274 223.31 52.5791 223.33 52.3375 223.35V209.54H53.069Z" fill="#FFD261"/>
<path d="M56.5853 209.533V222.881C56.3437 222.914 56.0954 222.948 55.8538 222.981V209.533H56.5853Z" fill="#FFD261"/>
<path d="M60.0948 209.527V222.277C59.8533 222.324 59.6117 222.371 59.3634 222.417V209.527H60.0948Z" fill="#FFD261"/>
<path d="M63.6044 209.52V221.424C63.3628 221.491 63.1212 221.565 62.8729 221.626V209.52H63.6044Z" fill="#FFD261"/>
<path d="M67.1139 209.52V220.19C66.8791 220.29 66.6308 220.391 66.3825 220.492V209.52H67.1139Z" fill="#FFD261"/>
<path d="M70.6302 209.513V218.069C70.4087 218.27 70.1672 218.465 69.8987 218.66V209.513H70.6302Z" fill="#FFD261"/>
<path d="M72.0125 209.58C72.0125 213.727 60.1686 217.096 45.56 217.096C43.567 217.096 41.6209 217.036 39.7487 216.915C37.4001 216.767 35.1655 216.526 33.0987 216.21C31.2533 215.928 29.5354 215.586 27.9853 215.197C27.5089 215.076 27.0526 214.955 26.6097 214.821C24.6637 214.251 23.033 213.6 21.7916 212.882C21.55 212.741 21.3219 212.6 21.1138 212.452C19.8187 211.567 19.1074 210.594 19.1074 209.58C19.1074 209.486 19.1074 209.393 19.1276 209.299C19.6375 205.279 31.2802 202.065 45.56 202.065C49.0762 202.065 52.4315 202.259 55.4981 202.615C56.0886 202.682 56.6725 202.756 57.2428 202.836C59.7324 203.185 62.0073 203.642 63.9734 204.185C64.4096 204.306 64.8256 204.427 65.235 204.554C66.6777 205.011 67.9259 205.514 68.9391 206.057C69.986 206.621 70.7979 207.225 71.3146 207.856C71.6971 208.319 71.9253 208.802 71.9857 209.292C71.9991 209.386 72.0058 209.48 72.0058 209.574L72.0125 209.58Z" fill="#FFE9B0"/>
<path opacity="0.3" d="M71.3214 207.869L39.7555 216.915C37.4068 216.767 35.1722 216.526 33.1054 216.21L68.9459 206.064C69.9927 206.628 70.8046 207.232 71.3214 207.863V207.869Z" fill="white"/>
<path opacity="0.3" d="M57.2428 202.843L21.7916 212.889C21.55 212.748 21.3219 212.607 21.1138 212.459L55.4981 202.622C56.0886 202.689 56.6724 202.763 57.2428 202.843Z" fill="white"/>
<path opacity="0.3" d="M65.235 204.561L27.9853 215.197C27.5089 215.076 27.0526 214.955 26.6097 214.821L63.9734 204.185C64.4096 204.306 64.8256 204.427 65.235 204.554V204.561Z" fill="white"/>
<path d="M66.7046 209.58C66.7046 209.674 66.6979 209.762 66.6845 209.856C66.1745 213.036 56.8939 215.586 45.56 215.586C34.2261 215.586 24.9455 213.043 24.4355 209.856C24.4221 209.762 24.4154 209.674 24.4154 209.58C24.4154 206.272 33.8973 203.575 45.56 203.575C57.2227 203.575 66.7046 206.265 66.7046 209.58Z" fill="#FFD261"/>
<path d="M66.6844 209.856C66.1744 213.036 56.8939 215.586 45.5599 215.586C45.305 215.586 45.0567 215.586 44.8017 215.586C42.2718 215.559 39.8561 215.412 37.6282 215.15C35.4003 214.895 33.3537 214.533 31.5821 214.083C31.1325 213.969 30.6963 213.855 30.2803 213.727C28.3879 213.164 26.8714 212.499 25.8581 211.755C25.6165 211.58 25.3951 211.399 25.2139 211.211C24.7777 210.775 24.516 210.319 24.4355 209.856C24.9455 206.675 34.226 204.125 45.5599 204.125C46.996 204.125 48.3918 204.165 49.754 204.246C50.4451 204.286 51.1229 204.333 51.7939 204.393C54.5184 204.635 57.008 205.024 59.1419 205.534C59.6049 205.641 60.0478 205.762 60.4772 205.883C62.1414 206.353 63.5305 206.896 64.5706 207.5C65.5839 208.091 66.2684 208.728 66.5569 209.406C66.624 209.554 66.6643 209.708 66.6911 209.856H66.6844Z" fill="#FFDA7D"/>
<path opacity="0.2" d="M66.5502 209.406L44.8084 215.58C42.2786 215.553 39.8628 215.405 37.6349 215.143L64.5639 207.493C65.5772 208.084 66.2617 208.721 66.5502 209.399V209.406Z" fill="white"/>
<path opacity="0.2" d="M51.794 204.393L25.8581 211.755C25.6166 211.58 25.3951 211.399 25.2139 211.211L49.754 204.239C50.4452 204.279 51.1229 204.326 51.794 204.387V204.393Z" fill="white"/>
<path opacity="0.2" d="M60.4705 205.883L31.5821 214.09C31.1325 213.976 30.6963 213.862 30.2803 213.734L59.1352 205.541C59.5982 205.648 60.0411 205.769 60.4705 205.89V205.883Z" fill="white"/>
<path d="M48.4991 212.989V213.989H44.0367V213.036C40.8693 212.983 37.8027 212.741 35.9036 212.406L38.306 210.862C40.3929 211.211 43.1777 211.439 45.6136 211.439C47.7341 211.439 48.4924 211.312 48.4924 211.097C48.4924 210.305 36.2459 210.943 36.2459 208.601C36.2459 207.587 38.8428 206.728 44.03 206.527V205.547H48.4924V206.507C50.8343 206.567 53.1159 206.742 54.9143 207.03L52.6663 208.567C50.4854 208.252 48.4253 208.097 46.4927 208.097C44.3118 208.097 43.6139 208.279 43.6139 208.493C43.6139 209.252 55.8605 208.621 55.8605 210.936C55.8605 211.909 53.391 212.754 48.4857 212.996L48.4991 212.989Z" fill="#FFD261"/>
<path d="M48.3716 212.654V213.654H43.9092V212.701C40.7418 212.647 37.6752 212.406 35.7761 212.07L38.1785 210.527C40.2654 210.876 43.0502 211.104 45.4861 211.104C47.6066 211.104 48.3649 210.976 48.3649 210.761C48.3649 209.97 36.1184 210.607 36.1184 208.265C36.1184 207.252 38.7153 206.393 43.9025 206.192V205.212H48.3649V206.172C50.7068 206.232 52.9884 206.406 54.7868 206.695L52.5388 208.232C50.3579 207.916 48.2978 207.762 46.3652 207.762C44.1843 207.762 43.4864 207.943 43.4864 208.158C43.4864 208.909 55.733 208.285 55.733 210.6C55.733 211.573 53.2635 212.419 48.3582 212.661L48.3716 212.654Z" fill="#FFE9B0"/>
<path d="M71.7777 206.104C71.7777 206.104 71.7777 206.151 71.7777 206.178C71.7777 207.098 71.2878 207.977 70.3886 208.802C70.1672 209.003 69.9256 209.198 69.6572 209.393C68.9056 209.936 67.9728 210.446 66.879 210.923C66.6442 211.023 66.3959 211.124 66.1476 211.224C65.3021 211.56 64.3693 211.869 63.3695 212.157C63.1279 212.224 62.8863 212.298 62.638 212.359C61.759 212.593 60.8329 212.808 59.8599 213.009C59.6183 213.056 59.3768 213.11 59.1285 213.15C58.236 213.318 57.31 213.472 56.3504 213.607C56.1088 213.64 55.8605 213.674 55.6189 213.707C54.7197 213.821 53.7937 213.929 52.8408 214.016C52.5992 214.036 52.3509 214.056 52.1094 214.076C51.2034 214.15 50.2774 214.211 49.3312 214.258C49.0897 214.271 48.8414 214.278 48.5998 214.291C47.6872 214.325 46.7611 214.345 45.8217 214.352C45.6606 214.352 45.4929 214.352 45.3318 214.352C45.2513 214.352 45.1708 214.352 45.0902 214.352C44.1508 214.352 43.2247 214.331 42.3121 214.298C42.0638 214.291 41.8223 214.278 41.5807 214.271C40.8828 214.237 40.1983 214.204 39.5206 214.157C39.279 214.137 39.0374 214.123 38.8026 214.103C38.5543 214.083 38.3127 214.063 38.0711 214.043C37.125 213.962 36.1922 213.862 35.293 213.748C35.0447 213.714 34.8031 213.687 34.5616 213.647C33.9845 213.566 33.4208 213.486 32.8705 213.392C32.5015 213.332 32.1391 213.271 31.7834 213.204C31.5352 213.157 31.2936 213.11 31.052 213.063C30.079 212.869 29.153 212.661 28.2739 212.432C28.0994 212.385 27.9317 212.338 27.7572 212.291C27.6834 212.271 27.6096 212.251 27.5424 212.231C27.1465 212.117 26.7573 212.003 26.3815 211.889C25.8112 211.708 25.2743 211.52 24.7643 211.325C24.516 211.231 24.2678 211.131 24.0329 211.03C23.0934 210.634 22.268 210.218 21.5702 209.775C21.4628 209.708 21.3554 209.641 21.2548 209.567C21.1273 209.48 21.0065 209.393 20.8857 209.305C20.7582 209.211 20.6374 209.111 20.5166 209.017C19.4564 208.131 18.8793 207.178 18.8793 206.178C18.8793 206.111 18.8793 206.037 18.886 205.97V200.32H20.5166H21.2481H24.0262H24.7576H26.9251H27.5357H28.2672H31.0453H31.7767H34.5549H35.2863H38.0644H38.7959H41.574H42.3054H45.0835H45.815H48.5931H49.3245H52.1027H52.8341H55.6122H56.3437H59.1218H59.8532H62.6313H63.3628H66.1409H66.8723H69.6505H70.3819H71.7642L71.7709 206.178L71.7777 206.104Z" fill="#FFDA7D"/>
<path d="M21.228 200.32V209.567C21.1005 209.48 20.9797 209.393 20.8589 209.305C20.7314 209.211 20.6106 209.111 20.4898 209.017V200.32H21.2212H21.228Z" fill="#FFD261"/>
<path d="M24.7375 200.313V211.318C24.4893 211.224 24.241 211.124 24.0061 211.023V200.313H24.7375Z" fill="#FFD261"/>
<path d="M28.2471 200.307V212.426C28.0726 212.379 27.9048 212.332 27.7304 212.285C27.6565 212.265 27.5827 212.244 27.5156 212.224V200.307H28.2471Z" fill="#FFD261"/>
<path d="M31.7634 200.3V213.197C31.5151 213.15 31.2735 213.103 31.0319 213.056V200.3H31.7634Z" fill="#FFD261"/>
<path d="M35.2729 200.3V213.748C35.0246 213.714 34.783 213.687 34.5414 213.647V200.3H35.2729Z" fill="#FFD261"/>
<path d="M38.7825 200.293V214.103C38.5342 214.083 38.2926 214.063 38.051 214.043V200.293H38.7825Z" fill="#FFD261"/>
<path d="M42.292 200.286V214.298C42.0438 214.291 41.8022 214.278 41.5606 214.271V200.286H42.292Z" fill="#FFD261"/>
<path d="M45.8083 200.28V214.352C45.6472 214.352 45.4795 214.352 45.3184 214.352C45.2379 214.352 45.1574 214.352 45.0768 214.352V200.28H45.8083Z" fill="#FFD261"/>
<path d="M49.3179 200.28V214.264C49.0763 214.278 48.828 214.284 48.5864 214.298V200.286H49.3179V200.28Z" fill="#FFD261"/>
<path d="M52.8274 200.273V214.023C52.5858 214.043 52.3375 214.063 52.0959 214.083V200.273H52.8274Z" fill="#FFD261"/>
<path d="M56.337 200.266V213.613C56.0954 213.647 55.8471 213.68 55.6055 213.714V200.266H56.337Z" fill="#FFD261"/>
<path d="M59.8533 200.26V213.009C59.6117 213.056 59.3701 213.11 59.1218 213.15V200.26H59.8533Z" fill="#FFD261"/>
<path d="M63.3628 200.253V212.157C63.1212 212.224 62.8796 212.298 62.6313 212.359V200.253H63.3628Z" fill="#FFD261"/>
<path d="M66.8724 200.253V210.923C66.6375 211.023 66.3892 211.124 66.1409 211.224V200.253H66.8724Z" fill="#FFD261"/>
<path d="M70.3886 200.246V208.802C70.1672 209.003 69.9256 209.198 69.6572 209.393V200.246H70.3886Z" fill="#FFD261"/>
<path d="M71.7709 200.313C71.7709 204.46 59.927 207.829 45.3184 207.829C43.3254 207.829 41.3794 207.769 39.5072 207.648C37.1585 207.5 34.9239 207.259 32.8571 206.943C31.0117 206.661 29.2939 206.319 27.7438 205.93C27.2673 205.809 26.811 205.688 26.3681 205.554C24.4221 204.984 22.7915 204.333 21.55 203.615C21.3084 203.474 21.0803 203.333 20.8723 203.185C19.5772 202.3 18.8658 201.327 18.8658 200.313C18.8658 200.219 18.8658 200.125 18.886 200.031C19.396 196.012 31.0386 192.798 45.3184 192.798C48.8347 192.798 52.1899 192.992 55.2565 193.348C55.8471 193.415 56.4309 193.489 57.0013 193.569C59.4908 193.918 61.759 194.375 63.7318 194.918C64.168 195.039 64.5841 195.16 64.9934 195.287C66.4361 195.743 67.6843 196.247 68.6976 196.79C69.7444 197.354 70.5564 197.958 71.0731 198.589C71.4556 199.052 71.6837 199.535 71.7441 200.025C71.7575 200.119 71.7642 200.213 71.7642 200.307L71.7709 200.313Z" fill="#FFE9B0"/>
<path opacity="0.3" d="M71.0731 198.602L39.5072 207.648C37.1585 207.5 34.9239 207.259 32.8571 206.943L68.6976 196.797C69.7444 197.361 70.5564 197.965 71.0731 198.595V198.602Z" fill="white"/>
<path opacity="0.3" d="M56.9945 193.569L21.5433 203.615C21.3017 203.474 21.0736 203.333 20.8655 203.185L55.2498 193.348C55.8403 193.415 56.4242 193.489 56.9945 193.569Z" fill="white"/>
<path opacity="0.3" d="M64.9934 195.294L27.7437 205.93C27.2673 205.809 26.811 205.688 26.3681 205.554L63.7318 194.918C64.168 195.039 64.5841 195.16 64.9934 195.287V195.294Z" fill="white"/>
<path d="M66.463 200.313C66.463 200.407 66.4563 200.494 66.4429 200.588C65.9329 203.769 56.6524 206.319 45.3184 206.319C33.9845 206.319 24.704 203.776 24.194 200.588C24.1805 200.494 24.1738 200.407 24.1738 200.313C24.1738 197.005 33.6557 194.307 45.3184 194.307C56.9812 194.307 66.463 196.998 66.463 200.313Z" fill="#FFD261"/>
<path d="M66.4428 200.588C65.9328 203.769 56.6523 206.319 45.3184 206.319C45.0634 206.319 44.8151 206.319 44.5601 206.319C42.0303 206.292 39.6145 206.145 37.3866 205.883C35.1588 205.628 33.1121 205.266 31.3405 204.816C30.8909 204.702 30.4547 204.588 30.0387 204.46C28.1464 203.897 26.6298 203.232 25.6165 202.487C25.3749 202.313 25.1535 202.132 24.9723 201.944C24.5361 201.508 24.2744 201.051 24.1939 200.588C24.7039 197.408 33.9844 194.858 45.3184 194.858C46.7544 194.858 48.1502 194.898 49.5124 194.978C50.2036 195.019 50.8813 195.066 51.5524 195.126C54.2768 195.368 56.7664 195.757 58.9003 196.267C59.3633 196.374 59.8062 196.495 60.2357 196.616C61.8999 197.086 63.2889 197.629 64.329 198.233C65.3423 198.824 66.0268 199.461 66.3153 200.139C66.3824 200.286 66.4227 200.441 66.4495 200.588H66.4428Z" fill="#FFDA7D"/>
<path opacity="0.2" d="M66.3086 200.139L44.5668 206.312C42.037 206.286 39.6212 206.138 37.3934 205.876L64.3224 198.226C65.3356 198.817 66.0201 199.454 66.3086 200.132V200.139Z" fill="white"/>
<path opacity="0.2" d="M51.5457 195.126L25.6098 202.487C25.3683 202.313 25.1468 202.132 24.9656 201.944L49.5057 194.972C50.1969 195.012 50.8746 195.059 51.5457 195.119V195.126Z" fill="white"/>
<path opacity="0.2" d="M60.229 196.616L31.3405 204.823C30.8909 204.709 30.4547 204.595 30.0387 204.467L58.8936 196.274C59.3566 196.381 59.7995 196.502 60.229 196.623V196.616Z" fill="white"/>
<path d="M48.2575 203.722V204.722H43.7951V203.769C40.6278 203.715 37.5611 203.474 35.662 203.138L38.0644 201.595C40.1513 201.944 42.9362 202.172 45.3721 202.172C47.4926 202.172 48.2508 202.045 48.2508 201.83C48.2508 201.038 36.0043 201.676 36.0043 199.334C36.0043 198.32 38.6012 197.461 43.7884 197.26V196.28H48.2508V197.24C50.5928 197.3 52.8743 197.475 54.6727 197.763L52.4247 199.3C50.2438 198.985 48.1837 198.83 46.2511 198.83C44.0702 198.83 43.3723 199.011 43.3723 199.226C43.3723 199.978 55.6189 199.354 55.6189 201.669C55.6189 202.642 53.1494 203.487 48.2441 203.729L48.2575 203.722Z" fill="#FFD261"/>
<path d="M48.13 203.387V204.387H43.6676V203.434C40.5003 203.38 37.4336 203.138 35.5345 202.803L37.9369 201.259C40.0238 201.608 42.8087 201.837 45.2445 201.837C47.365 201.837 48.1233 201.709 48.1233 201.494C48.1233 200.702 35.8768 201.34 35.8768 198.998C35.8768 197.985 38.4737 197.126 43.6609 196.925V195.945H48.1233V196.904C50.4653 196.965 52.7468 197.139 54.5452 197.428L52.2972 198.964C50.1163 198.649 48.0562 198.495 46.1236 198.495C43.9427 198.495 43.2448 198.676 43.2448 198.891C43.2448 199.642 55.4914 199.018 55.4914 201.333C55.4914 202.306 53.0219 203.152 48.1166 203.393L48.13 203.387Z" fill="#FFE9B0"/>
<path d="M70.4557 197.817C70.4557 197.817 70.4557 197.864 70.4557 197.891C70.4557 198.81 69.9658 199.689 69.0666 200.515C68.8452 200.716 68.6036 200.911 68.3352 201.105C67.5836 201.649 66.6509 202.159 65.5571 202.635C65.3222 202.736 65.0739 202.836 64.8256 202.937C63.9801 203.273 63.0474 203.581 62.0475 203.87C61.8059 203.937 61.5644 204.011 61.3161 204.071C60.437 204.306 59.511 204.521 58.538 204.722C58.2964 204.769 58.0548 204.823 57.8065 204.863C56.914 205.031 55.988 205.185 55.0284 205.319C54.7868 205.353 54.5385 205.386 54.297 205.42C53.3978 205.534 52.4717 205.641 51.5188 205.729C51.2773 205.749 51.029 205.769 50.7874 205.789C49.8815 205.863 48.9555 205.923 48.0093 205.97C47.7677 205.984 47.5194 205.99 47.2778 206.004C46.3652 206.037 45.4392 206.057 44.4997 206.064C44.3387 206.064 44.1709 206.064 44.0099 206.064C43.9293 206.064 43.8488 206.064 43.7683 206.064C42.8288 206.064 41.9028 206.044 40.9902 206.01C40.7419 206.004 40.5003 205.99 40.2587 205.984C39.5608 205.95 38.8764 205.917 38.1986 205.87C37.957 205.856 37.7155 205.836 37.4806 205.816C37.2323 205.796 36.9907 205.776 36.7492 205.755C35.803 205.675 34.8702 205.574 33.971 205.46C33.7228 205.427 33.4812 205.4 33.2396 205.36C32.6625 205.279 32.0988 205.198 31.5486 205.105C31.1795 205.044 30.8171 204.984 30.4615 204.917C30.2132 204.87 29.9716 204.823 29.73 204.776C28.757 204.581 27.831 204.373 26.9519 204.145C26.7775 204.098 26.6097 204.051 26.4352 204.004C26.3614 203.984 26.2876 203.964 26.2205 203.944C25.8246 203.83 25.4354 203.715 25.0596 203.601C24.4892 203.42 23.9524 203.232 23.4424 203.038C23.1941 202.944 22.9458 202.843 22.7109 202.742C21.7715 202.353 20.9461 201.931 20.2482 201.488C20.1408 201.421 20.0335 201.353 19.9328 201.28C19.8053 201.192 19.6845 201.105 19.5637 201.018C19.4362 200.924 19.3154 200.823 19.1947 200.729C18.1344 199.844 17.5573 198.891 17.5573 197.891C17.5573 197.824 17.5573 197.75 17.564 197.683V192.033H19.1947H19.9261H22.7042H23.4357H25.6031H26.2138H26.9452H29.7233H30.4548H33.2329H33.9643H36.7425H37.4739H40.252H40.9834H43.7616H44.493H47.2711H48.0026H50.7807H51.5121H54.2902H55.0217H57.7998H58.5312H61.3094H62.0408H64.8189H65.5504H68.3285H69.0599H70.4423L70.449 197.891L70.4557 197.817Z" fill="#FFDA7D"/>
<path d="M19.9126 192.033V201.28C19.7851 201.192 19.6644 201.105 19.5436 201.018C19.4161 200.924 19.2953 200.823 19.1745 200.729V192.033H19.9059H19.9126Z" fill="#FFD261"/>
<path d="M23.4222 192.026V203.031C23.1739 202.937 22.9257 202.836 22.6908 202.736V192.026H23.4222Z" fill="#FFD261"/>
<path d="M26.9318 192.019V204.138C26.7573 204.091 26.5895 204.044 26.4151 203.997C26.3412 203.977 26.2674 203.957 26.2003 203.937V192.019H26.9318Z" fill="#FFD261"/>
<path d="M30.4413 192.012V204.91C30.1931 204.863 29.9515 204.816 29.7099 204.769V192.012H30.4413Z" fill="#FFD261"/>
<path d="M33.9576 192.006V205.453C33.7093 205.42 33.4677 205.393 33.2261 205.353V192.006H33.9576Z" fill="#FFD261"/>
<path d="M37.4672 192.006V205.816C37.2189 205.796 36.9773 205.776 36.7357 205.755V192.006H37.4672Z" fill="#FFD261"/>
<path d="M40.9767 191.999V206.01C40.7285 206.004 40.4869 205.99 40.2453 205.984V191.999H40.9767Z" fill="#FFD261"/>
<path d="M44.493 191.992V206.064C44.3319 206.064 44.1642 206.064 44.0031 206.064C43.9226 206.064 43.8421 206.064 43.7615 206.064V191.992H44.493Z" fill="#FFD261"/>
<path d="M48.0026 191.986V205.97C47.761 205.984 47.5127 205.99 47.2711 206.004V191.992H48.0026V191.986Z" fill="#FFD261"/>
<path d="M51.5121 191.986V205.735C51.2705 205.755 51.0222 205.776 50.7806 205.796V191.986H51.5121Z" fill="#FFD261"/>
<path d="M55.0217 191.979V205.326C54.7801 205.36 54.5318 205.393 54.2902 205.427V191.979H55.0217Z" fill="#FFD261"/>
<path d="M58.538 191.972V204.722C58.2964 204.769 58.0548 204.823 57.8065 204.863V191.972H58.538Z" fill="#FFD261"/>
<path d="M62.0475 191.966V203.87C61.8059 203.937 61.5643 204.011 61.316 204.071V191.966H62.0475Z" fill="#FFD261"/>
<path d="M65.5571 191.966V202.635C65.3222 202.736 65.0739 202.836 64.8256 202.937V191.966H65.5571Z" fill="#FFD261"/>
<path d="M69.0666 191.959V200.515C68.8451 200.716 68.6036 200.911 68.3351 201.105V191.959H69.0666Z" fill="#FFD261"/>
<path d="M70.4557 192.026C70.4557 196.173 58.6118 199.542 44.0031 199.542C42.0101 199.542 40.0641 199.481 38.1919 199.36C35.8433 199.213 33.6087 198.971 31.5419 198.656C29.6965 198.374 27.9786 198.032 26.4285 197.643C25.9521 197.522 25.4958 197.401 25.0529 197.267C23.1068 196.696 21.4762 196.045 20.2348 195.327C19.9932 195.187 19.765 195.046 19.557 194.898C18.2619 194.012 17.5506 193.039 17.5506 192.026C17.5506 191.932 17.5506 191.838 17.5707 191.744C18.0807 187.725 29.7233 184.51 44.0031 184.51C47.5194 184.51 50.8746 184.705 53.9413 185.06C54.5318 185.128 55.1156 185.201 55.686 185.282C58.1756 185.631 60.4437 186.087 62.4166 186.631C62.8528 186.751 63.2688 186.872 63.6782 187C65.1209 187.456 66.369 187.959 67.3823 188.503C68.4291 189.067 69.2411 189.671 69.7578 190.301C70.1403 190.764 70.3685 191.248 70.4289 191.737C70.4423 191.831 70.449 191.925 70.449 192.019L70.4557 192.026Z" fill="#FFE9B0"/>
<path opacity="0.3" d="M69.7578 190.308L38.1919 199.354C35.8433 199.206 33.6087 198.964 31.5419 198.649L67.3823 188.503C68.4291 189.067 69.2411 189.671 69.7578 190.301V190.308Z" fill="white"/>
<path opacity="0.3" d="M55.6793 185.282L20.228 195.327C19.9865 195.187 19.7583 195.046 19.5503 194.898L53.9346 185.06C54.5251 185.128 55.1089 185.201 55.6793 185.282Z" fill="white"/>
<path opacity="0.3" d="M63.6714 187.006L26.4218 197.643C25.9453 197.522 25.489 197.401 25.0461 197.267L62.4099 186.631C62.846 186.751 63.2621 186.872 63.6714 187V187.006Z" fill="white"/>
<path d="M65.141 192.026C65.141 192.12 65.1343 192.207 65.1209 192.301C64.6109 195.482 55.3304 198.032 43.9965 198.032C32.6625 198.032 23.382 195.488 22.872 192.301C22.8586 192.207 22.8519 192.12 22.8519 192.026C22.8519 188.718 32.3337 186.02 43.9965 186.02C55.6592 186.02 65.141 188.711 65.141 192.026Z" fill="#FFD261"/>
<path d="M65.1209 192.301C64.6109 195.482 55.3303 198.032 43.9964 198.032C43.7414 198.032 43.4931 198.032 43.2381 198.032C40.7083 198.005 38.2925 197.857 36.0647 197.596C33.8368 197.341 31.7901 196.978 30.0186 196.529C29.569 196.415 29.1328 196.3 28.7167 196.173C26.8244 195.609 25.3078 194.945 24.2946 194.2C24.053 194.026 23.8315 193.844 23.6504 193.657C23.2142 193.22 22.9525 192.764 22.8719 192.301C23.3819 189.12 32.6625 186.57 43.9964 186.57C45.4324 186.57 46.8282 186.611 48.1904 186.691C48.8816 186.731 49.5594 186.778 50.2304 186.839C52.9548 187.08 55.4444 187.47 57.5783 187.98C58.0414 188.087 58.4842 188.208 58.9137 188.328C60.5712 188.798 61.967 189.342 63.0071 189.946C64.0204 190.536 64.7048 191.174 64.9934 191.851C65.0605 191.999 65.1007 192.153 65.1276 192.301H65.1209Z" fill="#FFDA7D"/>
<path opacity="0.2" d="M64.9934 191.851L43.2516 198.025C40.7217 197.998 38.306 197.851 36.0781 197.589L63.0071 189.939C64.0204 190.529 64.7049 191.167 64.9934 191.845V191.851Z" fill="white"/>
<path opacity="0.2" d="M50.2304 186.839L24.2946 194.2C24.053 194.026 23.8316 193.844 23.6504 193.657L48.1905 186.684C48.8816 186.725 49.5594 186.772 50.2304 186.832V186.839Z" fill="white"/>
<path opacity="0.2" d="M58.9137 188.322L30.0253 196.529C29.5757 196.415 29.1395 196.3 28.7234 196.173L57.5783 187.98C58.0414 188.087 58.4842 188.208 58.9137 188.328V188.322Z" fill="white"/>
<path d="M117.12 224.639C117.12 224.639 117.12 224.686 117.12 224.712C117.12 225.632 116.63 226.511 115.731 227.336C115.51 227.538 115.268 227.732 115 227.927C114.248 228.47 113.315 228.98 112.222 229.457C111.987 229.557 111.738 229.658 111.49 229.759C110.645 230.094 109.712 230.403 108.712 230.691C108.47 230.759 108.229 230.832 107.981 230.893C107.101 231.128 106.175 231.342 105.202 231.544C104.961 231.591 104.719 231.644 104.471 231.685C103.578 231.852 102.652 232.007 101.693 232.141C101.451 232.174 101.203 232.208 100.961 232.242C100.062 232.356 99.1362 232.463 98.1833 232.55C97.9417 232.57 97.6934 232.591 97.4518 232.611C96.5459 232.684 95.6199 232.745 94.6737 232.792C94.4321 232.805 94.1838 232.812 93.9423 232.825C93.0296 232.859 92.1036 232.879 91.1641 232.886C91.0031 232.886 90.8353 232.886 90.6743 232.886C90.5938 232.886 90.5132 232.886 90.4327 232.886C89.4932 232.886 88.5672 232.866 87.6546 232.832C87.4063 232.825 87.1647 232.812 86.9232 232.805C86.232 232.772 85.5408 232.738 84.8631 232.691C84.6215 232.671 84.3799 232.658 84.145 232.637C83.8967 232.617 83.6552 232.597 83.4136 232.577C82.4674 232.497 81.5347 232.396 80.6355 232.282C80.3872 232.248 80.1456 232.221 79.904 232.181C79.3269 232.101 78.7633 232.02 78.213 231.926C77.8439 231.866 77.4816 231.805 77.1259 231.738C76.8776 231.691 76.6361 231.644 76.3945 231.597C75.4215 231.403 74.4954 231.195 73.6164 230.967C73.4419 230.92 73.2741 230.873 73.0997 230.826C73.0258 230.806 72.952 230.785 72.8849 230.765C72.489 230.651 72.0998 230.537 71.724 230.416C71.1536 230.235 70.6168 230.047 70.1068 229.853C69.8585 229.759 69.6102 229.658 69.3754 229.557C68.4359 229.168 67.6105 228.745 66.9126 228.303C66.8053 228.235 66.6979 228.168 66.5972 228.095C66.4697 228.007 66.3489 227.92 66.2282 227.833C66.1007 227.739 65.9799 227.638 65.8591 227.544C64.7988 226.658 64.2217 225.706 64.2217 224.706C64.2217 224.639 64.2217 224.565 64.2285 224.498V218.848H65.8591H66.5905H69.3686H70.1001H72.2676H72.8782H73.6096H76.3878H77.1192H79.8973H80.6288H83.4069H84.1383H86.9164H87.6479H90.426H91.1574H93.9356H94.667H97.4451H98.1766H100.955H101.686H104.464H105.196H107.974H108.705H111.483H112.215H114.993H115.724H117.107L117.113 224.706L117.12 224.639Z" fill="#FFDA7D"/>
<path d="M66.5704 218.854V228.101C66.4429 228.014 66.3221 227.927 66.2013 227.84C66.0738 227.746 65.9531 227.645 65.8323 227.551V218.854H66.5637H66.5704Z" fill="#FFD261"/>
<path d="M70.08 218.848V229.853C69.8317 229.759 69.5834 229.658 69.3486 229.557V218.848H70.08Z" fill="#FFD261"/>
<path d="M73.5895 218.841V230.96C73.4151 230.913 73.2473 230.866 73.0728 230.819C72.999 230.799 72.9252 230.779 72.8581 230.759V218.841H73.5895Z" fill="#FFD261"/>
<path d="M77.1058 218.834V231.732C76.8575 231.685 76.616 231.638 76.3744 231.591V218.834H77.1058Z" fill="#FFD261"/>
<path d="M80.6153 218.834V232.282C80.3671 232.248 80.1255 232.221 79.8839 232.181V218.834H80.6153Z" fill="#FFD261"/>
<path d="M84.1249 218.827V232.637C83.8766 232.617 83.6351 232.597 83.3935 232.577V218.827H84.1249Z" fill="#FFD261"/>
<path d="M87.6345 218.821V232.832C87.3862 232.825 87.1447 232.812 86.9031 232.805V218.821H87.6345Z" fill="#FFD261"/>
<path d="M91.1508 218.814V232.886C90.9897 232.886 90.8219 232.886 90.6609 232.886C90.5804 232.886 90.4998 232.886 90.4193 232.886V218.814H91.1508Z" fill="#FFD261"/>
<path d="M94.6603 218.814V232.799C94.4188 232.812 94.1705 232.819 93.9289 232.832V218.821H94.6603V218.814Z" fill="#FFD261"/>
<path d="M98.1699 218.807V232.557C97.9283 232.577 97.68 232.597 97.4384 232.617V218.807H98.1699Z" fill="#FFD261"/>
<path d="M101.679 218.801V232.148C101.438 232.181 101.19 232.215 100.948 232.248V218.801H101.679Z" fill="#FFD261"/>
<path d="M105.196 218.794V231.544C104.954 231.591 104.713 231.644 104.464 231.685V218.794H105.196Z" fill="#FFD261"/>
<path d="M108.705 218.787V230.691C108.464 230.759 108.222 230.832 107.974 230.893V218.787H108.705Z" fill="#FFD261"/>
<path d="M112.215 218.787V229.457C111.98 229.557 111.732 229.658 111.483 229.759V218.787H112.215Z" fill="#FFD261"/>
<path d="M115.731 218.78V227.336C115.51 227.538 115.268 227.732 115 227.927V218.78H115.731Z" fill="#FFD261"/>
<path d="M117.113 218.848C117.113 222.995 105.269 226.363 90.6609 226.363C88.6611 226.363 86.7218 226.303 84.8496 226.182C82.501 226.034 80.2664 225.793 78.1996 225.477C76.3542 225.196 74.6363 224.853 73.0862 224.464C72.6098 224.343 72.1535 224.223 71.7106 224.088C69.7646 223.525 68.1339 222.867 66.8925 222.149C66.6509 222.008 66.4228 221.867 66.2147 221.72C64.9196 220.834 64.2083 219.861 64.2083 218.848C64.2083 218.754 64.2083 218.66 64.2284 218.566C64.7384 214.546 76.381 211.332 90.6609 211.332C94.1771 211.332 97.5323 211.526 100.599 211.882C101.19 211.949 101.773 212.023 102.344 212.104C104.833 212.452 107.101 212.909 109.074 213.452C109.51 213.573 109.927 213.694 110.336 213.821C111.779 214.278 113.027 214.781 114.04 215.325C115.087 215.888 115.899 216.492 116.416 217.123C116.798 217.586 117.026 218.069 117.087 218.559C117.1 218.653 117.107 218.747 117.107 218.841L117.113 218.848Z" fill="#FFE9B0"/>
<path opacity="0.3" d="M116.416 217.136L84.8496 226.182C82.501 226.034 80.2664 225.793 78.1996 225.477L114.04 215.331C115.087 215.895 115.899 216.499 116.416 217.13V217.136Z" fill="white"/>
<path opacity="0.3" d="M102.337 212.11L66.8858 222.156C66.6442 222.015 66.416 221.874 66.208 221.726L100.592 211.889C101.183 211.956 101.767 212.03 102.337 212.11Z" fill="white"/>
<path opacity="0.3" d="M110.336 213.828L73.0862 224.464C72.6098 224.343 72.1535 224.223 71.7106 224.088L109.074 213.452C109.51 213.573 109.927 213.694 110.336 213.821V213.828Z" fill="white"/>
<path d="M111.805 218.848C111.805 218.941 111.799 219.029 111.785 219.123C111.275 222.303 101.995 224.853 90.6609 224.853C79.327 224.853 70.0464 222.31 69.5364 219.123C69.523 219.029 69.5163 218.941 69.5163 218.848C69.5163 215.539 78.9981 212.842 90.6609 212.842C102.324 212.842 111.805 215.533 111.805 218.848Z" fill="#FFD261"/>
<path d="M111.785 219.123C111.275 222.303 101.995 224.853 90.6608 224.853C90.4058 224.853 90.1576 224.853 89.9026 224.853C87.3727 224.827 84.957 224.679 82.7291 224.417C80.5012 224.162 78.4546 223.8 76.683 223.35C76.2334 223.236 75.7972 223.122 75.3812 222.995C73.4888 222.431 71.9723 221.767 70.959 221.022C70.7174 220.847 70.496 220.666 70.3148 220.478C69.8786 220.042 69.6169 219.586 69.5364 219.123C70.0464 215.942 79.3269 213.392 90.6608 213.392C92.0969 213.392 93.4926 213.432 94.8549 213.513C95.546 213.553 96.2238 213.6 96.8948 213.66C99.6193 213.902 102.109 214.291 104.243 214.801C104.706 214.909 105.149 215.029 105.578 215.15C107.242 215.62 108.631 216.163 109.672 216.767C110.685 217.358 111.369 217.995 111.658 218.673C111.725 218.821 111.765 218.975 111.792 219.123H111.785Z" fill="#FFDA7D"/>
<path opacity="0.2" d="M111.651 218.673L89.9093 224.847C87.3795 224.82 84.9637 224.672 82.7358 224.41L109.665 216.761C110.678 217.351 111.363 217.989 111.651 218.666V218.673Z" fill="white"/>
<path opacity="0.2" d="M96.8882 213.66L70.9523 221.022C70.7107 220.847 70.4893 220.666 70.3081 220.478L94.8482 213.513C95.5394 213.553 96.2171 213.6 96.8882 213.66Z" fill="white"/>
<path opacity="0.2" d="M105.571 215.15L76.683 223.357C76.2334 223.243 75.7972 223.129 75.3812 223.001L104.236 214.808C104.699 214.915 105.142 215.036 105.571 215.157V215.15Z" fill="white"/>
<path d="M93.6 222.256V223.256H89.1376V222.303C85.9702 222.25 82.9036 222.008 81.0045 221.673L83.4069 220.129C85.4938 220.478 88.2786 220.706 90.7145 220.706C92.835 220.706 93.5933 220.579 93.5933 220.364C93.5933 219.572 81.3468 220.21 81.3468 217.868C81.3468 216.855 83.9437 215.996 89.1309 215.794V214.815H93.5933V215.774C95.9352 215.835 98.2168 216.009 100.015 216.298L97.7672 217.834C95.5863 217.519 93.5262 217.365 91.5936 217.365C89.4127 217.365 88.7148 217.546 88.7148 217.76C88.7148 218.519 100.961 217.888 100.961 220.203C100.961 221.176 98.4919 222.022 93.5866 222.263L93.6 222.256Z" fill="#FFD261"/>
<path d="M93.4725 221.928V222.927H89.0101V221.975C85.8427 221.921 82.7761 221.679 80.877 221.344L83.2794 219.8C85.3663 220.149 88.1511 220.378 90.587 220.378C92.7075 220.378 93.4658 220.25 93.4658 220.035C93.4658 219.243 81.2192 219.881 81.2192 217.539C81.2192 216.526 83.8162 215.667 89.0034 215.465V214.486H93.4658V215.445C95.8077 215.506 98.0893 215.68 99.8877 215.969L97.6397 217.505C95.4588 217.19 93.3987 217.036 91.4661 217.036C89.2852 217.036 88.5873 217.217 88.5873 217.432C88.5873 218.19 100.834 217.559 100.834 219.874C100.834 220.847 98.3644 221.693 93.4591 221.934L93.4725 221.928Z" fill="#FFE9B0"/>
<path d="M118.778 215.372C118.778 215.372 118.778 215.418 118.778 215.445C118.778 216.365 118.288 217.244 117.389 218.069C117.167 218.27 116.926 218.465 116.657 218.66C115.906 219.203 114.973 219.713 113.879 220.183C113.644 220.284 113.396 220.384 113.148 220.485C112.302 220.82 111.369 221.129 110.369 221.418C110.128 221.485 109.886 221.559 109.638 221.619C108.759 221.854 107.833 222.069 106.86 222.27C106.618 222.317 106.377 222.364 106.128 222.411C105.236 222.579 104.31 222.733 103.35 222.867C103.109 222.901 102.86 222.934 102.619 222.968C101.72 223.082 100.794 223.189 99.8407 223.276C99.5992 223.297 99.3509 223.317 99.1093 223.337C98.2034 223.411 97.2774 223.471 96.3312 223.518C96.0896 223.531 95.8413 223.538 95.5997 223.552C94.6871 223.585 93.7611 223.605 92.8216 223.612C92.6606 223.612 92.4928 223.612 92.3318 223.612C92.2512 223.612 92.1707 223.612 92.0902 223.612C91.1507 223.612 90.2247 223.592 89.3121 223.558C89.0638 223.552 88.8222 223.538 88.5806 223.531C87.8827 223.498 87.1983 223.464 86.5205 223.417C86.2789 223.404 86.0374 223.384 85.8025 223.364C85.5542 223.344 85.3126 223.323 85.0711 223.303C84.1249 223.223 83.1921 223.122 82.2929 223.008C82.0447 222.974 81.8031 222.948 81.5615 222.907C80.9844 222.827 80.4207 222.746 79.8705 222.652C79.5014 222.592 79.139 222.525 78.7834 222.464C78.5351 222.417 78.2935 222.371 78.0519 222.324C77.0789 222.129 76.1529 221.921 75.2738 221.693C75.0994 221.646 74.9316 221.599 74.7571 221.552C74.6833 221.532 74.6095 221.512 74.5424 221.491C74.1465 221.377 73.7573 221.263 73.3815 221.149C72.8111 220.968 72.2743 220.78 71.7643 220.586C71.516 220.492 71.2677 220.391 71.0328 220.29C70.0934 219.894 69.268 219.478 68.5701 219.035C68.4627 218.968 68.3554 218.901 68.2547 218.827C68.1272 218.74 68.0064 218.653 67.8856 218.566C67.7581 218.472 67.6373 218.371 67.5166 218.277C66.4563 217.391 65.8792 216.438 65.8792 215.439C65.8792 215.372 65.8792 215.298 65.8859 215.231V209.58H67.5166H68.248H71.0261H71.7576H73.925H74.5357H75.2671H78.0452H78.7767H81.5548H82.2862H85.0644H85.7958H88.5739H89.3054H92.0835H92.8149H95.593H96.3245H99.1026H99.834H102.612H103.344H106.122H106.853H109.631H110.363H113.141H113.872H116.65H117.382H118.764L118.771 215.439L118.778 215.372Z" fill="#FFDA7D"/>
<path d="M68.2346 209.587V218.834C68.1071 218.747 67.9863 218.66 67.8655 218.572C67.738 218.478 67.6172 218.378 67.4964 218.284V209.587H68.2278H68.2346Z" fill="#FFD261"/>
<path d="M71.7441 209.58V220.586C71.4958 220.492 71.2476 220.391 71.0127 220.29V209.58H71.7441Z" fill="#FFD261"/>
<path d="M75.2537 209.574V221.693C75.0792 221.646 74.9114 221.599 74.737 221.552C74.6631 221.532 74.5893 221.512 74.5222 221.491V209.574H75.2537Z" fill="#FFD261"/>
<path d="M78.7632 209.567V222.464C78.5149 222.417 78.2734 222.371 78.0318 222.324V209.567H78.7632Z" fill="#FFD261"/>
<path d="M82.2795 209.567V223.015C82.0312 222.981 81.7896 222.954 81.548 222.914V209.567H82.2795Z" fill="#FFD261"/>
<path d="M85.7891 209.56V223.37C85.5408 223.35 85.2992 223.33 85.0576 223.31V209.56H85.7891Z" fill="#FFD261"/>
<path d="M89.2986 209.554V223.565C89.0503 223.558 88.8088 223.545 88.5672 223.538V209.554H89.2986Z" fill="#FFD261"/>
<path d="M92.8149 209.547V223.619C92.6538 223.619 92.4861 223.619 92.325 223.619C92.2445 223.619 92.164 223.619 92.0834 223.619V209.547H92.8149Z" fill="#FFD261"/>
<path d="M96.3245 209.547V223.531C96.0829 223.545 95.8346 223.552 95.593 223.565V209.554H96.3245V209.547Z" fill="#FFD261"/>
<path d="M99.834 209.54V223.29C99.5924 223.31 99.3441 223.33 99.1025 223.35V209.54H99.834Z" fill="#FFD261"/>
<path d="M103.344 209.533V222.881C103.102 222.914 102.854 222.948 102.612 222.981V209.533H103.344Z" fill="#FFD261"/>
<path d="M106.853 209.527V222.277C106.612 222.324 106.37 222.371 106.122 222.417V209.527H106.853Z" fill="#FFD261"/>
<path d="M110.369 209.52V221.424C110.128 221.491 109.886 221.565 109.638 221.626V209.52H110.369Z" fill="#FFD261"/>
<path d="M113.879 209.52V220.19C113.644 220.29 113.396 220.391 113.148 220.492V209.52H113.879Z" fill="#FFD261"/>
<path d="M117.388 209.513V218.069C117.167 218.27 116.925 218.465 116.657 218.66V209.513H117.388Z" fill="#FFD261"/>
<path d="M118.778 209.58C118.778 213.727 106.934 217.096 92.325 217.096C90.332 217.096 88.386 217.036 86.5138 216.915C84.1652 216.767 81.9306 216.526 79.8638 216.21C78.0184 215.928 76.3005 215.586 74.7504 215.197C74.274 215.076 73.8177 214.955 73.3748 214.821C71.4287 214.251 69.7981 213.6 68.5567 212.882C68.3151 212.741 68.0869 212.6 67.8789 212.452C66.5838 211.567 65.8725 210.594 65.8725 209.58C65.8725 209.486 65.8725 209.393 65.8926 209.299C66.4026 205.279 78.0452 202.065 92.325 202.065C95.8413 202.065 99.1965 202.259 102.263 202.615C102.854 202.682 103.438 202.756 104.008 202.836C106.497 203.185 108.766 203.642 110.738 204.185C111.175 204.306 111.591 204.427 112 204.554C113.443 205.011 114.691 205.514 115.704 206.057C116.751 206.621 117.563 207.225 118.08 207.856C118.462 208.319 118.69 208.802 118.751 209.292C118.764 209.386 118.771 209.48 118.771 209.574L118.778 209.58Z" fill="#FFE9B0"/>
<path opacity="0.3" d="M118.08 207.869L86.5138 216.915C84.1652 216.767 81.9306 216.526 79.8638 216.21L115.704 206.064C116.751 206.628 117.563 207.232 118.08 207.863V207.869Z" fill="white"/>
<path opacity="0.3" d="M104.001 202.843L68.5499 212.889C68.3084 212.748 68.0802 212.607 67.8722 212.459L102.256 202.622C102.847 202.689 103.431 202.763 104.001 202.843Z" fill="white"/>
<path opacity="0.3" d="M111.993 204.561L74.7437 215.197C74.2672 215.076 73.8109 214.955 73.368 214.821L110.732 204.185C111.168 204.306 111.584 204.427 111.993 204.554V204.561Z" fill="white"/>
<path d="M113.463 209.58C113.463 209.674 113.456 209.762 113.443 209.856C112.933 213.036 103.652 215.586 92.3184 215.586C80.9844 215.586 71.7039 213.043 71.1939 209.856C71.1805 209.762 71.1738 209.674 71.1738 209.58C71.1738 206.272 80.6556 203.575 92.3184 203.575C103.981 203.575 113.463 206.265 113.463 209.58Z" fill="#FFD261"/>
<path d="M113.443 209.856C112.933 213.036 103.652 215.586 92.3183 215.586C92.0633 215.586 91.815 215.586 91.56 215.586C89.0302 215.559 86.6144 215.412 84.3866 215.15C82.1587 214.895 80.112 214.533 78.3405 214.083C77.8909 213.969 77.4547 213.855 77.0386 213.727C75.1463 213.164 73.6297 212.499 72.6165 211.755C72.3749 211.58 72.1534 211.399 71.9723 211.211C71.5361 210.775 71.2744 210.319 71.1938 209.856C71.7038 206.675 80.9844 204.125 92.3183 204.125C93.7543 204.125 95.1501 204.165 96.5123 204.246C97.2035 204.286 97.8813 204.333 98.5523 204.393C101.277 204.635 103.766 205.024 105.9 205.534C106.363 205.641 106.806 205.762 107.236 205.883C108.9 206.353 110.289 206.896 111.329 207.5C112.342 208.091 113.027 208.728 113.315 209.406C113.382 209.554 113.423 209.708 113.449 209.856H113.443Z" fill="#FFDA7D"/>
<path opacity="0.2" d="M113.315 209.406L91.5735 215.58C89.0436 215.553 86.6279 215.405 84.4 215.143L111.329 207.493C112.342 208.084 113.027 208.721 113.315 209.399V209.406Z" fill="white"/>
<path opacity="0.2" d="M98.5523 204.393L72.6165 211.755C72.3749 211.58 72.1535 211.399 71.9723 211.211L96.5124 204.239C97.2035 204.279 97.8813 204.326 98.5523 204.387V204.393Z" fill="white"/>
<path opacity="0.2" d="M107.236 205.883L78.3472 214.09C77.8976 213.976 77.4614 213.862 77.0453 213.734L105.9 205.541C106.363 205.648 106.806 205.769 107.236 205.89V205.883Z" fill="white"/>
<path d="M218.837 235.093H206.691C205.04 235.093 203.577 233.221 203.067 230.457L197.914 202.561C197.706 201.421 198.155 200.233 198.833 200.139C208.208 198.857 217.495 198.857 226.688 200.139C227.366 200.233 227.815 201.421 227.607 202.561L222.454 230.463C221.944 233.228 220.481 235.1 218.83 235.1L218.837 235.093Z" fill="#FFBD9C"/>
<path d="M212.838 203.024C220.194 203.024 226.158 202.357 226.158 201.535C226.158 200.712 220.194 200.045 212.838 200.045C205.481 200.045 199.518 200.712 199.518 201.535C199.518 202.357 205.481 203.024 212.838 203.024Z" fill="#FFBD9C"/>
<path d="M235.841 164.459C228.547 162.54 217.401 177.679 214.012 192.442V170.935C215.717 167.915 218.958 163.379 224.85 158.581C234.009 151.119 242.444 141.543 235.137 139.624C228.285 137.819 218.045 151.059 214.019 164.902V137.282C215.2 135.45 217.132 133.048 220.226 130.531C225.997 125.827 231.312 119.795 226.708 118.58C222.709 117.527 216.877 124.606 214.019 132.585V123.633C214.489 120.862 215.16 116.909 216.992 112.863C221.239 103.495 223.534 93.8388 217.931 94.5568C212.328 95.2748 208.697 111.964 211.757 124.774V129.384C209.691 120.009 202.584 110.299 197.947 111.521C193.344 112.735 198.659 118.768 204.43 123.472C208.825 127.049 210.878 130.404 211.757 132.202V153.964C208.436 139.128 197.209 123.814 189.875 125.747C182.567 127.673 191.002 137.249 200.162 144.704C207.087 150.341 210.355 155.622 211.757 158.501V184.597C208.208 170.029 197.27 155.333 190.076 157.226C182.768 159.151 189.036 166.15 199.33 174.612C206.329 180.363 210.073 186.436 211.757 189.731V202.024C212.576 202.253 213.341 202.253 214.019 202.024V197.133C215.448 194.234 218.723 189.013 225.561 183.443C234.721 175.981 243.156 166.405 235.848 164.486L235.841 164.459Z" fill="#FFBD9C"/>
<path d="M215.133 119.271C215.133 119.164 216.663 116.003 216.173 115.762C215.69 115.52 214.817 115.554 214.717 116.111C214.616 116.668 215.133 119.271 215.133 119.271Z" fill="#FFA87D"/>
<path d="M237.962 79.975C237.962 79.975 246.927 69.198 251.678 76.0964C251.678 76.0964 255.221 77.566 256.503 83.5919C257.811 89.7454 253.718 94.4159 251.604 93.2617C250.248 92.5235 249.222 94.8923 249.222 94.8923L237.968 79.975H237.962Z" fill="#2A343D"/>
<path d="M226.836 137.316C219.709 134.692 212.838 122.492 212.838 122.492L215.086 120.915C216.958 123.653 225.38 128.914 225.38 128.914C225.574 126.606 225.849 124.512 226.198 122.613C228.54 109.722 233.888 105.904 235.324 105.092C235.559 104.958 235.687 104.911 235.687 104.911C235.687 104.911 235.687 105.005 235.673 105.186C235.653 105.575 235.606 106.354 235.532 107.427C234.976 115.406 232.795 139.517 226.836 137.316Z" fill="#FFA87D"/>
<path d="M250.691 75.0026C250.691 75.0026 251.899 70.1778 258.979 71.6876C258.979 71.6876 255.59 71.2581 254.657 72.5667C254.657 72.5667 257.341 71.3387 259.026 72.3654C260.71 73.3921 260.985 76.8614 260.737 77.9149C260.489 78.9684 258.63 82.1089 257.395 82.1089C256.16 82.1089 254.711 81.0285 254.711 81.0285L250.691 75.0026Z" fill="#2A343D"/>
<path d="M261.294 150.475C257.771 142.577 256.087 140.342 256.026 137.859C255.979 135.893 256.945 133.773 258.831 128.572C259.274 127.344 259.583 126.089 259.771 124.814C261.26 114.789 255.462 103.958 251.859 103.22C250.859 102.958 249.155 99.3346 249.181 93.5033L248.732 93.5905L241.149 95.0936C241.149 95.0936 241.324 97.4825 241.324 99.7305C241.324 101.603 241.216 103.381 240.793 103.602C240.25 103.649 239.928 103.683 239.928 103.683C239.928 103.683 233.6 112.467 233.07 120.634C232.54 128.8 238.136 132.35 233.029 148.676C227.815 165.352 263.247 154.837 261.301 150.468L261.294 150.475Z" fill="#FFA87D"/>
<path d="M241.142 95.0936C241.142 95.0936 241.317 97.4825 241.317 99.7305C245.565 99.6097 247.806 95.7378 248.725 93.5905L241.142 95.0936Z" fill="#E8895B"/>
<path d="M249.51 92.7651C249.51 92.7651 251.731 89.2488 252.268 86.2426C252.651 84.0952 251.557 76.1433 243.565 77.2908C243.565 77.2908 241.243 77.519 239.062 78.9953C237.324 80.1696 234.821 82.6994 237.619 89.638L238.344 91.98L249.504 92.7651H249.51Z" fill="#2A343D"/>
<path d="M239.726 97.2208C239.726 97.2208 249.772 97.3886 249.779 91.1278C249.785 84.8736 251.087 80.6796 244.672 80.3105C238.257 79.9415 237.009 82.3237 236.499 84.4106C235.989 86.4976 237.109 97.0128 239.726 97.2141V97.2208Z" fill="#FFA87D"/>
<path d="M240.096 80.1629C240.096 80.1629 242.847 87.5041 247.068 88.5845C251.289 89.6716 253.121 88.5375 253.121 88.5375C253.121 88.5375 249.886 85.9674 249.215 81.4781C249.215 81.4781 242.176 76.6668 240.102 80.1562L240.096 80.1629Z" fill="#2A343D"/>
<path d="M240.78 80.7601C240.78 80.7601 238.727 82.3975 238.223 83.9946C237.72 85.5849 237.499 88.8663 236.539 88.7523C236.539 88.7523 234.465 83.7664 236.794 80.9413C239.263 77.9485 240.773 80.7601 240.773 80.7601H240.78Z" fill="#234562"/>
<path d="M252.403 226.263C249.873 236.315 246.075 244.018 246.075 244.018L242.76 243.79C242.76 243.79 244.384 236.067 244.29 225.625C244.223 218.324 243.323 209.701 240.438 201.468C230.527 173.163 232.13 152.569 232.13 152.569L250.765 154.749L251.631 154.85C251.711 163.406 251.926 175.028 252.121 184.114C252.288 192.288 252.443 198.408 252.443 198.408C256.026 206.125 254.724 217.016 252.396 226.263H252.403Z" fill="#164460"/>
<path d="M274.352 158.863L271.339 159.769C271.339 159.769 261.395 143.268 260.489 138.973C260.193 137.577 259.469 134.779 258.63 131.645C256.885 125.156 254.63 117.211 254.63 117.211L253.886 113.997L251.356 103.032C251.356 103.032 256.201 103.529 259.039 104.716C259.979 105.106 260.697 105.575 260.945 106.126C263.025 110.709 265.105 122.264 266.568 130.511C267.38 135.108 268.004 138.671 268.326 139.429C269.232 141.537 271.99 153.146 274.352 158.87V158.863Z" fill="#FFA87D"/>
<path d="M263.092 224.659C262.019 236.093 257.301 243.488 257.301 243.488L255.717 244.636C255.717 244.636 254.221 236.577 253.161 226.994C252.154 217.881 250.765 208.245 249.202 205.299C242.988 193.63 241.116 149.576 241.116 149.576L260.012 148.636C261.911 151.83 262.743 157.071 262.938 163.03C263.434 178.068 259.898 197.669 259.375 200.508C259.375 200.508 259.375 200.508 259.375 200.515C259.334 200.736 259.395 200.951 259.502 201.145C263.26 208.587 263.804 217.103 263.099 224.652L263.092 224.659Z" fill="#1C5C8A"/>
<path d="M240.398 81.0084C240.398 81.0084 242.357 88.6919 247.678 91.1546C247.678 91.1546 242.35 86.4304 241.901 81.3574C241.451 76.2843 240.391 81.0084 240.391 81.0084H240.398Z" fill="#234562"/>
<path d="M263.663 156.179C263.696 156.816 263.663 157.326 263.549 157.689C263.146 158.957 261.764 159.527 258.428 159.185C256.389 158.97 255.476 155.555 255.073 152.636C253.845 156.81 252.134 159.151 249.913 159.641C246.679 160.359 230.352 162.346 229.285 154.588C228.111 146.053 231.627 130.941 231.822 122.794C231.345 119.902 231.177 117.399 231.231 115.245C231.365 109.441 233.07 106.186 234.378 104.877C234.747 104.596 235.123 104.414 236.613 104.159C237.371 104.032 238.431 103.878 239.921 103.683C239.921 103.683 240.532 103.616 240.518 103.636C240.243 104.133 236.546 109.729 236.834 111.165C237.136 112.675 250.248 111.313 251.154 110.487C252.06 109.662 253.49 103.314 253.49 103.314C253.49 103.314 258.133 103.824 260.401 105.475C260.401 105.475 260.395 105.488 260.375 105.502C260.65 105.696 260.851 105.904 260.972 106.132C263.394 110.742 265.817 122.385 267.514 130.692C263.388 132.967 259.784 132.29 258.67 131.988C260.133 141.55 263.448 151.824 263.663 156.179Z" fill="#F98946"/>
<path d="M215.093 120.915C215.093 120.607 215.354 116.117 214.556 115.178C213.757 114.238 212.126 112.896 211.616 112.937C211.107 112.977 209.1 115.641 209.704 117.688C210.308 119.728 212.851 122.492 212.851 122.492L215.099 120.915H215.093Z" fill="#FFA87D"/>
<path d="M211.278 107.412L215.926 106.019C216.08 105.973 216.238 106.059 216.285 106.213L218.941 115.077C218.987 115.231 218.901 115.39 218.747 115.436L214.1 116.829C213.945 116.875 213.787 116.79 213.74 116.635L211.084 107.771C211.038 107.617 211.124 107.458 211.278 107.412Z" fill="#F1964F"/>
<path d="M210.51 107.612L214.726 106.348C215.003 106.265 215.289 106.424 215.37 106.694L217.898 115.127C217.981 115.404 217.822 115.69 217.552 115.771L213.335 117.035C213.059 117.118 212.773 116.958 212.692 116.688L210.163 108.255C210.08 107.979 210.24 107.693 210.51 107.612Z" fill="#D85713"/>
<path d="M263.092 224.659C262.019 236.093 257.301 243.488 257.301 243.488L255.691 244.958C255.691 244.958 254.221 236.583 253.161 227.001C254.275 227.081 259.2 227.262 263.092 224.665V224.659Z" fill="#FFA87D"/>
<path d="M252.403 226.263C249.873 236.315 246.075 244.018 246.075 244.018L242.76 243.79C242.76 243.79 244.384 236.067 244.29 225.625C245.41 226.189 247.732 226.766 252.403 226.263Z" fill="#D9895C"/>
<path d="M247.974 246.797H245.86C245.149 246.682 244.632 246.481 243.9 246.387C242.8 246.24 242.29 246.696 242.189 246.797C242.176 246.81 242.169 246.817 242.169 246.817H233.191C232.962 246.495 233.184 245.75 233.392 245.199C233.533 244.824 233.848 244.542 234.231 244.428C235.183 244.153 237.062 243.904 238.78 242.347C239.747 241.475 243.451 239.133 243.451 239.133H243.471C243.551 239.133 243.941 239.247 245.625 240.67C246.497 241.401 247.98 239.636 247.98 239.636C247.98 239.636 248.262 239.865 248.47 240.294C248.638 240.636 248.759 241.099 248.665 241.67C248.531 242.482 248.96 243.985 249.309 244.998C249.517 245.615 249.691 246.052 249.691 246.052C249.691 246.052 249.792 246.562 247.974 246.79V246.797Z" fill="#234562"/>
<path d="M248.47 240.301C247.967 240.656 246.9 241.354 246.195 241.448C245.242 241.576 243.457 239.14 243.457 239.14H243.478C243.558 239.14 243.947 239.254 245.632 240.677C246.504 241.408 247.987 239.643 247.987 239.643C247.987 239.643 248.269 239.871 248.477 240.301H248.47Z" fill="#467DA5"/>
<path d="M247.974 246.797H245.86C245.149 246.682 244.632 246.481 243.9 246.387C242.8 246.24 242.29 246.696 242.189 246.797C242.176 246.81 242.169 246.817 242.169 246.817H233.191C232.962 246.495 233.184 245.75 233.392 245.199C233.667 244.958 233.741 246.253 233.895 246.461C234.043 246.669 241.223 246.535 241.639 246.233C242.055 245.931 243.296 245.401 245.028 245.817C246.538 246.179 248.759 245.253 249.309 245.005C249.517 245.622 249.691 246.058 249.691 246.058C249.691 246.058 249.792 246.568 247.974 246.797Z" fill="#467DA5"/>
<path d="M259.261 246.797H257.147C256.435 246.682 255.919 246.481 255.187 246.387C254.087 246.24 253.577 246.696 253.476 246.797C253.463 246.81 253.456 246.817 253.456 246.817H244.477C244.249 246.495 244.471 245.75 244.679 245.199C244.82 244.824 245.135 244.542 245.518 244.428C246.47 244.153 248.349 243.904 250.067 242.347C251.034 241.475 254.738 239.133 254.738 239.133H254.758C254.838 239.133 255.228 239.247 256.912 240.67C257.784 241.401 259.267 239.636 259.267 239.636C259.267 239.636 259.549 239.865 259.757 240.294C259.925 240.636 260.046 241.099 259.952 241.67C259.818 242.482 260.247 243.985 260.596 244.998C260.804 245.615 260.978 246.052 260.978 246.052C260.978 246.052 261.079 246.562 259.261 246.79V246.797Z" fill="#234562"/>
<path d="M259.757 240.301C259.254 240.656 258.187 241.354 257.482 241.448C256.529 241.576 254.744 239.14 254.744 239.14H254.765C254.845 239.14 255.234 239.254 256.919 240.677C257.791 241.408 259.274 239.643 259.274 239.643C259.274 239.643 259.556 239.871 259.764 240.301H259.757Z" fill="#467DA5"/>
<path d="M259.261 246.797H257.147C256.435 246.682 255.919 246.481 255.187 246.387C254.087 246.24 253.577 246.696 253.476 246.797C253.463 246.81 253.456 246.817 253.456 246.817H244.477C244.249 246.495 244.471 245.75 244.679 245.199C244.954 244.958 245.028 246.253 245.182 246.461C245.33 246.669 252.51 246.535 252.926 246.233C253.342 245.931 254.583 245.401 256.315 245.817C257.825 246.179 260.046 245.253 260.596 245.005C260.804 245.622 260.978 246.058 260.978 246.058C260.978 246.058 261.079 246.568 259.261 246.797Z" fill="#467DA5"/>
<path d="M263.663 156.179C261.421 155.427 258.543 153.441 255.087 148.972C245.94 137.148 254.308 123.257 255.429 122.996C256.55 122.734 258.663 131.981 258.663 131.981C260.126 141.543 263.441 151.817 263.656 156.172L263.663 156.179Z" fill="#EF6E29"/>
<path d="M234.935 104.616C234.935 104.616 228.674 107.77 226.587 120.486C226.587 120.486 228.641 123.298 231.526 124.13C231.942 124.25 232.372 124.324 232.815 124.351C236.365 124.539 234.935 104.616 234.935 104.616Z" fill="#F98946"/>
<path d="M211.133 113.279C211.133 113.279 213.066 110.299 213.542 110.467C214.22 110.702 211.784 114.48 211.784 114.48C211.784 114.48 213.583 111.655 213.864 111.87C214.509 112.353 213.482 114.131 212.475 115.487C212.475 115.487 214.287 113.829 214.348 114.124C214.556 115.171 212.361 117.708 212.361 117.708L211.133 114.903V113.272V113.279Z" fill="#FFA87D"/>
<path d="M209.677 116.044C209.771 115.681 210.241 108.568 210.442 109.239C210.643 109.917 211.127 113.641 211.127 113.641L209.677 116.037V116.044Z" fill="#FFA87D"/>
<path d="M241.686 93.51C241.686 93.51 241.511 94.2481 239.68 94.134C239.68 94.134 238.143 94.0401 238.19 93.2281C238.19 93.2281 239.68 92.651 241.693 93.51H241.686Z" fill="white"/>
<path d="M274.352 158.863C274.352 158.863 277.989 161.279 278.546 162.299C279.103 163.319 280.398 167.07 280.398 167.07C280.398 167.07 279.472 167.211 278.546 165.587C277.62 163.963 274.56 164.104 273.54 163.225C272.52 162.346 271.333 159.762 271.333 159.762L274.346 158.856L274.352 158.863Z" fill="#FFA87D"/>
<path d="M271.735 160.567C271.735 160.567 272.339 163.413 273.084 164.251C273.822 165.083 274.842 166.473 275.258 166.103C275.674 165.734 274.795 162.627 274.795 162.627L271.735 160.567Z" fill="#FFA87D"/>
<path d="M278.036 162.627C278.13 162.768 281.325 166.164 281.325 166.164C281.325 166.164 280.164 166.687 279.841 166.164C279.519 165.64 278.036 162.627 278.036 162.627Z" fill="#FFA87D"/>
<path d="M236.787 110.414C237.552 112.467 238.874 114.849 240.263 115.44C241.84 116.111 242.498 117.064 242.498 117.064L243.773 116.325L245.289 115.44C245.289 115.44 245.256 115.272 245.182 114.997C245.108 114.722 244.994 114.339 244.84 113.923C244.84 113.923 244.377 113.326 244.659 112.574C244.947 111.823 244.887 110.662 244.397 109.951C243.907 109.246 243.437 107.501 243.149 107.548C242.437 107.669 243.498 110.071 243.196 110.514C242.921 110.917 242.578 110.776 242.511 110.749C242.511 110.749 242.505 110.749 242.498 110.749C240.505 109.87 238.089 105.146 237.015 105.783C236.613 106.025 236.458 109.541 236.787 110.42V110.414Z" fill="#FFA87D"/>
<path d="M236.845 103.523L234.341 105.283C234.166 105.406 234.123 105.649 234.247 105.825L240.644 114.928C240.768 115.103 241.011 115.146 241.187 115.022L243.69 113.263C243.866 113.139 243.908 112.896 243.785 112.72L237.387 103.618C237.264 103.442 237.021 103.4 236.845 103.523Z" fill="#2B5A8B"/>
<path d="M233.087 106.165L234.553 105.135C234.691 105.039 234.872 105.075 234.965 105.207L241.466 114.458C241.563 114.595 241.526 114.776 241.394 114.869L239.929 115.899C239.791 115.996 239.61 115.959 239.517 115.828L233.016 106.577C232.919 106.439 232.956 106.258 233.087 106.165Z" fill="#234562"/>
<path d="M279.499 100.214C279.499 100.214 266.796 122.372 262.186 126.445L245.289 113.849C245.289 113.849 242.84 114.601 241.766 117.064C241.766 117.064 252.027 137.967 262.133 138.859C272.239 139.745 286.418 113.802 286.418 113.802L279.506 100.22L279.499 100.214Z" fill="#234562"/>
<path d="M308.247 250.91H315.588C316.514 250.407 317.333 249.259 317.594 247.548C317.95 245.186 320.601 243.891 321.178 241.958C321.748 240.026 318.816 237.301 318.816 237.301L318.326 236.67L317.816 236.013L312.944 237.16C312.944 237.16 312.823 238.321 312.749 239.798C312.696 240.864 312.669 242.092 312.729 243.18C312.87 245.756 312.011 248.534 309.716 249.038C308.025 249.407 308.099 250.413 308.253 250.91H308.247Z" fill="#234562"/>
<path d="M265.649 250.91H282.432C283.237 249.924 282.942 246.287 282.821 245.105C282.794 244.864 282.781 244.73 282.781 244.73C282.781 244.73 277.05 240.146 276.265 243.656C276.238 243.763 276.211 243.871 276.178 243.978C275.184 247.26 270.735 248.756 268.165 249.172C266.494 249.44 265.877 250.313 265.649 250.917V250.91Z" fill="#234562"/>
<path d="M268.85 157.219C268.85 157.219 269.722 168.076 270.742 181.128C272.131 198.857 273.802 220.639 273.97 224.766C274.258 231.933 275.406 243.394 275.406 243.394C275.406 243.394 278.124 246.119 283.572 244.971C283.572 244.971 288.424 228.611 289.813 211.298C289.833 211.016 289.853 210.728 289.88 210.446C291.169 192.824 293.175 155.716 293.175 155.716L268.856 157.219H268.85Z" fill="#F98946"/>
<path d="M268.85 157.219C268.85 157.219 269.722 168.076 270.742 181.128L289.806 211.298C289.827 211.016 289.847 210.728 289.874 210.446C291.162 192.824 293.168 155.716 293.168 155.716L268.85 157.219Z" fill="#ED6E2B"/>
<path d="M272.822 158.507C272.822 158.507 288.511 197.83 298.825 216.318C309.139 234.798 312.367 239.959 312.367 239.959C312.367 239.959 318.279 237.597 318.816 235.986C318.816 235.986 314.87 200.307 307.965 191.61C304.059 186.698 299.476 171.948 299.261 166.788C299.047 161.628 297.866 151.421 297.866 151.421L272.829 158.514L272.822 158.507Z" fill="#F98946"/>
<path d="M276.728 101.18C282.861 103.113 293.464 97.8919 293.464 97.8919C293.464 97.8919 287.813 93.6509 288.109 84.8267L283.371 88.6449L280.15 91.2418C280.15 91.2418 280.164 92.7718 280.513 95.4493C280.606 96.1539 280.721 96.939 280.868 97.7979C278.238 99.2407 276.728 101.173 276.728 101.173V101.18Z" fill="#FFA87D"/>
<path d="M280.15 91.2418C280.15 91.2418 280.164 92.7718 280.512 95.4493C284.082 94.8386 288.129 89.0676 288.129 89.0676C286.31 88.5442 284.72 88.4503 283.371 88.6382L280.15 91.2351V91.2418Z" fill="#ED8C5D"/>
<path d="M278.271 91.1009C278.271 91.1009 288.397 92.7852 289.35 86.464C290.303 80.1428 292.249 76.1031 285.82 74.761C279.399 73.4189 277.775 75.6401 276.943 77.6733C276.11 79.7066 275.661 90.5037 278.271 91.1009Z" fill="#FFA87D"/>
<path d="M268.172 158.125C268.36 158.279 268.568 158.373 268.816 158.373C271.118 158.34 277.828 159.621 283.512 159.037C288.303 158.574 292.538 157.158 297.087 155.118C297.691 154.85 299.08 154.105 299.053 153.427C299.033 152.689 298.96 151.616 298.866 150.267C298.543 145.57 297.98 137.49 298.53 128.163C298.631 126.425 298.678 124.707 298.684 123.009C298.731 110.373 296.228 99.2608 291.189 95.503C290.759 95.1943 288.122 96.4827 285.693 97.6839C283.452 98.7911 281.21 98.9119 279.097 98.4824L276.976 100.355C274.399 102.75 271.574 106.005 270.346 110.944C269.299 115.151 268.689 122.734 268.353 130.592C268.199 134.155 268.078 137.745 268.045 141.154V141.275C268.018 141.61 268.018 141.979 268.018 142.322C267.897 151.072 268.018 158.011 268.172 158.131V158.125Z" fill="#2B5A8B"/>
<path d="M298.866 150.26C298.543 145.563 297.98 137.483 298.53 128.156C298.631 126.418 298.678 124.7 298.684 123.002C296.584 117.916 294.873 114.225 294.873 114.225H289.585C289.585 114.225 285.706 140.698 298.859 150.253L298.866 150.26Z" fill="#234562"/>
<path d="M323.036 159.825L300.488 163.038C297.542 163.458 295.494 166.186 295.914 169.133L297.306 178.905C297.726 181.851 300.455 183.899 303.401 183.479L325.948 180.266C328.895 179.847 330.943 177.118 330.523 174.172L329.13 164.399C328.71 161.453 325.982 159.405 323.036 159.825Z" fill="#234562"/>
<path d="M298.886 168.7L300.295 178.585C300.57 180.497 301.825 182.041 303.476 182.772C304.026 183.014 304.616 183.168 305.234 183.215C305.616 183.249 306.012 183.235 306.408 183.175L328.915 179.967C331.861 179.544 333.928 176.793 333.505 173.847L332.096 163.963C331.673 161.017 328.922 158.95 325.976 159.373L318.225 160.48L317.923 158.373C317.782 157.4 316.876 156.722 315.903 156.856L315.051 156.977L310.34 157.648L309.166 157.816C308.696 157.883 308.28 158.131 307.992 158.514C307.703 158.896 307.582 159.366 307.65 159.836L307.951 161.943L303.462 162.58C303.281 162.607 303.113 162.641 302.939 162.681C301.208 163.104 299.839 164.359 299.201 165.942C298.866 166.788 298.731 167.734 298.872 168.694L298.886 168.7ZM317.125 160.634L309.072 161.782L308.77 159.675C308.716 159.313 308.971 158.977 309.334 158.923L311.354 158.635L315.065 158.105L316.064 157.964C316.132 157.957 316.199 157.957 316.266 157.964C316.548 158.011 316.776 158.232 316.823 158.527L317.125 160.634Z" fill="#2B5A8B"/>
<path d="M308.804 151.173C308.804 151.173 309.985 152.75 310.032 153.38C310.347 157.648 308.401 158.246 313.454 160.614C313.454 160.614 315.608 161.44 315.648 159.762C315.689 158.085 314.152 158.058 314.434 155.716C314.756 153.011 314.722 152.985 312.951 151.575L311.776 149.636L308.81 151.179L308.804 151.173Z" fill="#FFA87D"/>
<path d="M311.81 152.381C309.904 152.75 307.844 152.602 307.844 152.602C307.844 152.602 302.194 135.148 301.462 133.551C300.738 131.954 284.68 113.084 284.68 113.084L291.37 96.3418C291.37 96.3418 308.737 125.351 310.501 129.431C313.414 136.168 314.427 151.273 314.427 151.273C314.427 151.273 313.306 152.092 311.81 152.387V152.381Z" fill="#2B5A8B"/>
<path d="M289.357 85.8534C289.357 85.8534 288.317 85.6789 288.484 84.2496C288.652 82.8202 288.652 80.948 287.485 81.297C286.324 81.6459 286.263 82.5787 285.787 82.0351C285.31 81.4916 285.297 79.1966 281.834 79.0423C278.372 78.8812 276.963 80.0891 275.352 79.3778C273.742 78.6732 273.654 76.2306 273.654 76.2306C273.654 76.2306 274.111 77.1029 274.802 77.3781C274.802 77.3781 272.118 73.7007 275.225 71.1843C278.332 68.6679 281.506 70.312 283.304 70.4261C287.27 70.6676 289.833 70.9025 291.128 73.5129C292.424 76.1165 291.887 83.3504 289.343 85.8601L289.357 85.8534Z" fill="#2A343D"/>
<path d="M310.669 153.052C310.669 153.052 309.528 154.239 309.455 154.736C309.226 156.326 308.696 157.011 308.958 157.179C309.508 157.534 310.24 156.36 310.589 155.306C310.938 154.253 310.663 153.052 310.663 153.052H310.669Z" fill="#FFA87D"/>
</g>
<defs>
<clipPath id="clip0_641_4467">
<rect width="332.844" height="250.91" fill="white" transform="translate(0.714111)"/>
</clipPath>
</defs>
</svg>
