<svg width="327" height="318" viewBox="0 0 327 318" fill="none" xmlns="http://www.w3.org/2000/svg">
<path d="M46.5653 96.8327L28.5516 54.9446C26.2837 49.5183 24.4129 44.5142 22.943 39.9361C21.4694 35.358 20.0552 30.5244 18.6929 25.4351H18.1844C18.6372 28.0353 19.0604 30.8059 19.4576 33.7431C19.8547 36.684 20.1925 39.6213 20.4783 42.5622C20.7604 45.5032 20.9869 48.3293 21.1576 51.0406C21.3283 53.7556 21.4137 56.1854 21.4137 58.3337V114.297H0V0H24.8138L47.9275 52.5703C50.1918 57.6559 52.0922 62.634 53.6215 67.4936C55.1508 72.3569 56.1976 76.8794 56.7655 81.0612H57.107C57.6712 76.8794 58.7216 72.3569 60.2509 67.4936C61.7802 62.634 63.677 57.6596 65.9449 52.5703L89.0512 0H113.865V114.301H92.4513V58.3374C92.4513 56.1891 92.5367 53.7593 92.7074 51.0443C92.8782 48.333 93.1046 45.5069 93.3867 42.5659C93.6688 39.6287 94.0066 36.6877 94.4074 33.7468C94.8046 30.8096 95.2278 28.039 95.6806 25.4388H95.1721C93.8135 30.5244 92.3956 35.358 90.922 39.9398C89.4484 44.5179 87.5776 49.522 85.3134 54.9483L67.2997 96.8364H46.5653V96.8327Z" fill="white"/>
<path d="M128.658 0H203.096V18.6532H150.072V46.6366H199.866V65.2897H150.072V95.6437H204.116V114.297H128.662V0H128.658Z" fill="white"/>
<path d="M291.172 88.6914H249.707L241.04 114.301H217.926L259.224 0H281.659L322.957 114.301H299.843L291.176 88.6914H291.172ZM256.162 70.3753H284.714L279.105 53.2482L270.609 24.0795H270.267L261.771 53.2482L256.162 70.3753Z" fill="white"/>
<path d="M22.3677 200.014C17.7799 200.014 13.6709 199.551 10.0444 198.629C6.41417 197.707 3.16258 196.425 0.285889 194.784L3.67482 183.92C6.13949 185.287 8.9271 186.45 12.0451 187.406C15.1593 188.365 18.2587 188.839 21.3396 188.839C25.2407 188.839 28.5294 188.069 31.1983 186.532C33.8671 184.995 35.2034 182.62 35.2034 179.409C35.2034 177.838 34.8099 176.505 34.023 175.412C33.2361 174.32 32.1745 173.364 30.8382 172.542C29.5019 171.723 27.9949 171.023 26.3209 170.442C24.6431 169.86 22.9134 169.264 21.1354 168.649C19.0122 167.967 16.7517 167.13 14.3575 166.138C11.9597 165.149 9.75113 163.849 7.73188 162.245C5.71263 160.641 4.03487 158.641 2.6986 156.248C1.36233 153.855 0.694193 150.918 0.694193 147.433C0.694193 144.836 1.15818 142.377 2.08243 140.054C3.00668 137.732 4.46173 135.717 6.44758 134.01C8.43342 132.302 10.9649 130.954 14.0495 129.961C17.1303 128.972 20.8273 128.476 25.1405 128.476C29.0417 128.476 32.6199 128.854 35.8715 129.602C39.1231 130.354 42.2225 131.483 45.166 132.984L41.7771 143.232C39.175 142.073 36.4691 141.184 33.6629 140.569C30.8531 139.954 28.2548 139.647 25.8569 139.647C21.7479 139.647 18.7004 140.366 16.7146 141.799C14.7287 143.232 13.7377 145.044 13.7377 147.233C13.7377 148.807 14.1126 150.151 14.8661 151.281C15.6196 152.407 16.6106 153.381 17.843 154.204C19.0753 155.026 20.4784 155.741 22.0522 156.356C23.6261 156.97 25.237 157.552 26.8777 158.096C29.3423 158.915 31.8404 159.856 34.3756 160.915C36.9071 161.974 39.201 163.323 41.2574 164.964C43.3101 166.604 44.9878 168.601 46.2907 170.96C47.5898 173.316 48.2431 176.205 48.2431 179.62C48.2431 183.035 47.575 186.113 46.2387 188.639C44.9024 191.169 43.0873 193.288 40.7934 194.995C38.4995 196.703 35.7787 197.966 32.6273 198.788C29.476 199.607 26.0536 200.018 22.3566 200.018L22.3677 200.014Z" fill="#7A0309"/>
<path d="M71.7652 198.784H58.9259V149.285H70.325L71.7615 155.741C72.515 154.922 73.3873 154.048 74.3821 153.126C75.3732 152.203 76.5053 151.366 77.771 150.614C79.0368 149.862 80.425 149.248 81.932 148.77C83.439 148.292 85.0797 148.051 86.8614 148.051C90.0795 148.051 92.7484 148.836 94.8716 150.407C96.991 151.981 98.4646 154.2 99.2887 157.067C101.275 154.811 103.635 152.748 106.375 150.866C109.114 148.988 112.228 148.048 115.721 148.048C120.238 148.048 123.664 149.585 125.992 152.659C128.319 155.733 129.485 160.141 129.485 165.878V198.777H116.645V167.008C116.645 164.412 116.319 162.345 115.669 160.808C115.02 159.271 113.598 158.5 111.408 158.5C109.218 158.5 107.095 159.133 105.246 160.397C103.398 161.663 101.857 163.215 100.625 165.06V198.777H87.7856V167.008C87.7856 164.412 87.459 162.345 86.8094 160.808C86.1598 159.271 84.7382 158.5 82.5482 158.5C80.3582 158.5 78.235 159.133 76.3865 160.397C74.538 161.663 72.9976 163.215 71.7652 165.06V198.777V198.784Z" fill="#7A0309"/>
<path d="M139.343 184.846C139.343 181.705 139.874 179.039 140.936 176.853C141.997 174.668 143.504 172.89 145.453 171.523C147.405 170.156 149.781 169.168 152.591 168.553C155.397 167.938 158.548 167.63 162.041 167.63H169.023V165.99C169.023 160.73 166.009 158.1 159.985 158.1C157.175 158.1 154.592 158.459 152.231 159.178C149.87 159.897 147.591 160.904 145.401 162.2L142.524 153.181C144.644 151.748 147.383 150.533 150.739 149.544C154.094 148.555 157.687 148.059 161.522 148.059C168.437 148.059 173.537 149.699 176.826 152.978C180.111 156.256 181.755 160.834 181.755 166.712V198.788H170.456L169.02 192.332C168.403 193.291 167.683 194.229 166.863 195.151C166.043 196.073 165.048 196.892 163.886 197.61C162.721 198.329 161.384 198.907 159.881 199.351C158.374 199.796 156.663 200.018 154.747 200.018C152.624 200.018 150.638 199.677 148.79 198.992C146.941 198.307 145.316 197.299 143.913 195.969C142.509 194.636 141.396 193.047 140.576 191.202C139.755 189.358 139.343 187.239 139.343 184.846ZM169.023 176.238H161.937C158.652 176.238 156.117 176.957 154.339 178.39C152.557 179.824 151.67 181.842 151.67 184.439C151.67 186.284 152.216 187.769 153.315 188.899C154.41 190.025 155.779 190.591 157.424 190.591C159.068 190.591 160.709 190.269 162.149 189.617C163.585 188.969 164.818 188.098 165.846 187.002C166.874 185.909 167.661 184.646 168.207 183.209C168.752 181.776 169.027 180.272 169.027 178.702V176.242L169.023 176.238Z" fill="#7A0309"/>
<path d="M208.258 156.559C208.803 155.467 209.438 154.407 210.158 153.381C210.878 152.355 211.713 151.451 212.675 150.666C213.632 149.881 214.727 149.248 215.96 148.77C217.192 148.292 218.595 148.051 220.169 148.051C221.606 148.051 222.957 148.307 224.226 148.822C225.492 149.333 226.539 149.966 227.359 150.718L224.586 162.608C222.804 161.174 220.511 160.456 217.704 160.456C215.856 160.456 214.059 160.882 212.311 161.737C210.566 162.593 209.212 163.941 208.254 165.786V198.784H195.107V149.285H206.61L208.254 156.563L208.258 156.559Z" fill="#7A0309"/>
<path d="M250.157 183.717C250.157 185.765 250.569 187.254 251.389 188.176C252.21 189.099 253.476 189.562 255.19 189.562C257.451 189.562 259.708 188.776 261.968 187.206L264.637 196.736C262.926 197.829 261.126 198.651 259.244 199.196C257.358 199.74 255.253 200.014 252.926 200.014C247.381 200.014 243.39 198.681 240.963 196.018C238.532 193.354 237.318 189.221 237.318 183.617V158.508H229.72V149.285H237.526L240.606 135.143H250.157V149.285H264.229V158.508H250.157V183.72V183.717Z" fill="#7A0309"/>
<path d="M202.211 282.116C202.3 282.209 202.211 282.39 201.936 282.664C200.652 283.946 199.921 284.902 199.739 285.542C199.371 285.728 198.915 286.205 198.365 286.983C197.816 287.761 197.311 288.283 196.855 288.557C196.669 288.65 195.982 289.428 194.795 290.887C194.245 291.435 194.015 291.758 194.108 291.847C194.108 292.032 194.245 292.076 194.52 291.984H195.069C195.251 292.076 195.296 292.306 195.207 292.669C195.114 292.761 194.977 292.921 194.795 293.147C194.609 293.376 194.472 293.536 194.383 293.628C194.015 293.995 193.696 294.176 193.421 294.176C193.236 294.176 193.147 294.039 193.147 293.765V293.354C193.054 292.898 192.824 292.761 192.46 292.943C192.185 293.217 191.725 293.606 191.087 294.106C190.444 294.61 189.988 294.995 189.713 295.269L189.576 295.543C189.576 295.636 189.665 295.773 189.85 295.954H191.499C191.588 296.139 191.499 296.321 191.224 296.502C191.038 296.688 190.901 296.825 190.812 296.914C190.812 297.006 190.719 297.143 190.537 297.325C190.352 297.51 190.262 297.647 190.262 297.736C190.17 298.01 189.895 298.24 189.438 298.421C188.796 298.514 188.291 298.88 187.928 299.517C187.104 300.706 186.324 301.392 185.593 301.573C185.225 301.758 184.995 301.94 184.906 302.121C184.175 303.036 183.44 303.492 182.709 303.492C182.523 303.492 182.434 303.629 182.434 303.903C182.434 303.996 182.523 304.133 182.709 304.314H183.67C183.852 304.314 183.945 304.407 183.945 304.588L183.67 304.862C183.121 305.047 182.891 305.366 182.984 305.822C182.984 306.277 182.798 306.551 182.434 306.644C182.249 306.644 181.974 306.733 181.61 306.918C181.517 306.918 181.38 307.007 181.198 307.192C181.013 307.374 180.875 307.466 180.786 307.466C180.697 307.466 180.601 307.329 180.511 307.055L180.374 306.781C180.007 306.596 179.776 306.551 179.687 306.644C179.413 306.825 178.934 306.985 178.247 307.122C177.561 307.259 177.033 307.466 176.67 307.737H175.846C175.66 307.737 175.523 307.781 175.434 307.874L175.708 308.148C176.44 308.329 176.944 308.466 177.219 308.559C177.308 308.559 177.356 308.648 177.356 308.833L177.219 309.107C176.577 309.107 175.296 309.426 173.374 310.066C172.824 310.155 171.907 310.477 170.627 311.026C170.166 311.207 170.122 311.526 170.489 311.985C170.578 312.259 170.534 312.533 170.352 312.807C169.71 313.444 168.886 313.674 167.88 313.492C167.787 313.492 167.583 313.47 167.264 313.426C166.941 313.378 166.688 313.359 166.51 313.359L166.098 313.496C166.187 313.952 166.121 314.226 165.89 314.318C165.66 314.407 165.456 314.407 165.274 314.318H162.802V314.456L163.077 315.004H162.665C162.479 315.004 162.297 314.911 162.115 314.73L162.802 314.456V314.318C162.342 313.859 161.841 313.77 161.291 314.044C160.924 314.318 160.512 314.27 160.055 313.907C158.407 313.359 156.897 312.537 155.523 311.44C154.788 310.892 154.194 310.526 153.738 310.344C151.54 309.337 149.662 307.555 148.107 305.003C148.014 304.914 147.877 304.455 147.695 303.633C147.42 301.351 147.602 299.021 148.244 296.647C149.618 292.08 150.486 289.25 150.854 288.154C150.854 288.065 150.924 287.857 151.062 287.539C151.199 287.22 151.314 286.968 151.403 286.787C151.492 286.698 151.611 286.535 151.748 286.305C151.886 286.079 152.001 285.916 152.093 285.828C152.368 285.646 152.55 285.783 152.643 286.239L152.78 286.513C152.962 286.698 153.144 286.698 153.329 286.513C153.329 286.424 153.419 286.287 153.604 286.102C153.786 285.92 153.879 285.783 153.879 285.691C154.154 285.235 154.243 284.868 154.154 284.594V284.32C154.243 284.046 154.291 283.864 154.291 283.772C154.473 283.498 154.473 283.316 154.291 283.224C154.016 283.135 153.786 283.272 153.604 283.635C153.419 284.183 153.237 284.594 153.055 284.868C153.055 284.961 152.869 285.005 152.505 285.005C152.413 285.005 152.368 284.868 152.368 284.594V283.635C152.55 283.272 152.847 282.379 153.259 280.964C153.671 279.549 154.105 278.523 154.562 277.883L154.974 276.649C155.063 276.101 155.226 275.531 155.453 274.938C155.679 274.345 155.954 273.682 156.277 272.953C156.596 272.223 156.848 271.675 157.03 271.308L157.442 271.034C157.624 271.219 157.717 271.401 157.717 271.582C157.717 271.949 157.739 272.153 157.787 272.201C157.832 272.245 157.992 272.223 158.266 272.13C158.816 271.767 159.135 271.493 159.228 271.308C159.41 270.852 159.822 270.623 160.464 270.623C160.553 270.623 160.646 270.578 160.738 270.486C160.738 270.304 160.69 270.212 160.601 270.212C160.512 270.212 160.278 270.097 159.914 269.871C159.547 269.645 159.272 269.389 159.09 269.119C158.905 269.119 158.767 269.167 158.678 269.256C158.589 269.345 158.541 269.486 158.541 269.667C158.541 269.849 158.493 269.989 158.404 270.078C158.129 270.352 157.854 270.445 157.58 270.352C157.394 270.171 157.305 269.941 157.305 269.667C157.394 269.578 158.129 267.567 159.502 263.637C160.601 260.896 161.377 258.84 161.837 257.47C162.476 256.192 162.843 255.414 162.936 255.14L164.584 250.618C164.584 250.529 164.628 250.392 164.721 250.207L164.859 249.932C166.139 246.917 166.781 245.365 166.781 245.273C166.87 244.91 167.126 244.339 167.535 243.562C167.947 242.788 168.199 242.262 168.288 241.987C168.563 241.165 169.112 239.932 169.936 238.287C170.76 236.643 171.31 235.409 171.584 234.587C172.041 233.216 172.91 231.253 174.194 228.694C174.376 228.331 174.606 227.872 174.881 227.324C175.155 226.775 175.382 226.32 175.567 225.953C176.666 223.945 177.353 222.39 177.627 221.293C177.991 220.93 178.381 220.267 178.793 219.308C179.205 218.349 179.595 217.689 179.958 217.323C180.047 217.323 180.096 217.234 180.096 217.049C180.278 216.045 181.102 215.267 182.568 214.719C183.117 214.445 183.574 214.126 183.941 213.76C184.305 213.304 184.854 213.052 185.589 213.008C186.32 212.963 186.825 213.167 187.1 213.623C187.464 214.263 187.969 214.674 188.611 214.856C189.067 214.949 189.847 215.404 190.945 216.226C191.402 216.593 192.089 217.234 193.006 218.145C193.28 218.238 193.418 218.556 193.418 219.104C193.325 219.471 193.507 220.156 193.967 221.16C194.605 222.349 194.791 223.397 194.516 224.312C194.149 225.042 193.874 225.457 193.692 225.546C193.507 225.638 192.913 226.186 191.907 227.19C191.721 227.19 191.632 227.283 191.632 227.464C191.632 228.012 191.309 228.698 190.671 229.52C190.029 230.342 189.709 230.983 189.709 231.439C189.524 231.987 189.205 232.398 188.748 232.672C187.924 233.313 187.557 233.998 187.649 234.728C187.649 235.457 187.282 236.098 186.551 236.646C186.458 236.739 186.183 237.106 185.727 237.743C185.452 238.291 185.062 239.113 184.561 240.21C184.056 241.306 183.67 242.128 183.396 242.676C183.303 242.862 183.21 243.18 183.121 243.636C183.028 244.095 182.846 244.458 182.572 244.732C182.022 245.28 181.747 245.921 181.747 246.651C181.655 247.38 181.335 248.021 180.786 248.569C180.419 248.844 180.189 249.21 180.099 249.666C179.914 249.94 179.665 250.399 179.346 251.036C179.023 251.677 178.774 252.181 178.592 252.544L178.18 253.777C178.088 254.418 177.494 255.97 176.395 258.437C176.302 258.622 176.143 259.007 175.916 259.6C175.686 260.196 175.482 260.674 175.296 261.037V261.311L175.159 261.585C175.066 261.952 174.814 262.363 174.405 262.819C173.993 263.278 173.741 263.641 173.652 263.915C173.652 264.1 173.63 264.485 173.585 265.078C173.537 265.674 173.47 266.108 173.381 266.382C173.195 266.841 172.876 267.615 172.42 268.712C171.959 269.808 171.64 270.586 171.458 271.041C171.273 271.408 171.091 271.638 170.909 271.727C170.816 271.819 170.634 271.841 170.359 271.793C170.085 271.749 169.947 271.815 169.947 272.001C169.947 272.093 170.037 272.275 170.222 272.549L170.497 272.96C170.497 273.234 170.449 273.419 170.359 273.508L170.085 273.919C170.085 274.56 169.992 275.201 169.81 275.838C169.625 276.479 169.376 277.186 169.057 277.96C168.734 278.738 168.53 279.353 168.437 279.809C168.162 280.816 167.795 281.957 167.338 283.235C166.878 284.424 166.696 285.109 166.789 285.291C166.789 285.383 166.766 285.476 166.722 285.565C166.674 285.657 166.655 285.75 166.655 285.839C166.288 286.205 165.783 287.394 165.144 289.402C164.777 290.317 164.595 291.046 164.595 291.595C164.595 292.417 164.409 293.013 164.046 293.376L163.908 293.513V295.295C163.908 295.48 163.749 295.684 163.426 295.91C163.103 296.139 162.991 296.391 163.084 296.662C163.084 297.302 162.899 297.714 162.535 297.895L162.398 298.169C162.761 298.81 162.579 299.403 161.848 299.951V300.362C161.848 300.455 161.893 300.658 161.986 300.977C162.075 301.299 162.075 301.551 161.986 301.729C161.893 302.188 161.8 302.803 161.711 303.577C161.618 304.355 161.574 304.788 161.574 304.881C161.299 306.066 161.574 307.074 162.398 307.896C163.129 308.625 163.908 308.763 164.732 308.307C166.013 307.94 167.843 307.299 170.222 306.388C170.772 306.296 171.321 306.022 171.87 305.566C174.068 304.196 175.486 303.421 176.128 303.236C176.677 302.962 177.453 302.507 178.462 301.866C179.468 301.229 180.155 300.818 180.523 300.632C182.353 299.629 184.045 298.258 185.604 296.521L186.428 295.699C186.885 295.15 187.39 294.65 187.939 294.191L192.471 290.491C192.56 290.402 192.679 290.309 192.816 290.217C192.954 290.128 193.069 290.035 193.161 289.943C194.624 288.483 195.678 287.339 196.32 286.517C196.777 286.154 197.371 285.557 198.106 284.735C198.837 283.913 199.431 283.276 199.891 282.816C200.348 282.268 200.852 281.768 201.402 281.309C201.491 281.22 201.721 281.172 202.088 281.172C202.178 281.357 202.226 281.675 202.226 282.131L202.211 282.116ZM150.724 299.517V299.38L150.586 299.243V299.517H150.724ZM152.234 290.202L152.097 290.065V290.339L152.234 290.202ZM154.844 282.39H154.981L154.844 282.253C154.751 282.253 154.707 282.301 154.707 282.39H154.844ZM156.217 279.238C156.306 279.057 156.306 278.849 156.217 278.62C156.125 278.394 155.987 278.323 155.805 278.416C155.531 278.416 155.393 278.646 155.393 279.101C155.208 279.468 155.119 279.786 155.119 280.061C155.119 280.153 155.163 280.29 155.256 280.472C155.438 280.472 155.575 280.427 155.668 280.335C155.757 280.246 155.85 280.061 155.943 279.786C156.032 279.512 156.125 279.331 156.217 279.238ZM158.827 299.24C158.734 299.058 158.597 298.877 158.415 298.691C158.229 298.784 158.047 298.828 157.865 298.828C157.954 298.921 158.092 299.058 158.277 299.24L158.415 299.514C158.597 299.332 158.734 299.24 158.827 299.24ZM159.101 296.362L158.827 296.499L158.964 296.636L159.101 296.499V296.362ZM160.887 278.823C160.976 278.734 161.024 278.549 161.024 278.275L160.887 278.138C160.794 278.049 160.701 278.001 160.612 278.001C160.612 277.82 160.475 277.864 160.2 278.138C160.015 278.323 159.74 278.686 159.376 279.235L159.513 279.646C160.245 279.646 160.701 279.372 160.887 278.823ZM162.81 264.711C163.173 263.982 163.222 263.296 162.947 262.656C162.761 262.293 162.579 262.156 162.398 262.244C161.937 262.244 161.711 262.43 161.711 262.793C161.711 263.067 161.481 263.752 161.024 264.848C160.839 265.034 160.749 265.215 160.749 265.397C160.839 265.945 160.612 266.311 160.063 266.493V267.041L160.887 267.452C161.343 267.545 161.755 267.408 162.123 267.041C162.579 266.585 162.81 265.808 162.81 264.711ZM162.672 288.002C162.672 287.913 162.624 287.865 162.535 287.865C162.442 287.776 162.26 287.728 161.986 287.728C161.711 287.728 161.388 287.82 161.024 288.002C160.749 288.276 160.701 288.506 160.887 288.687C161.251 288.872 161.525 288.961 161.711 288.961C161.986 288.78 162.305 288.461 162.672 288.002ZM162.123 290.743L161.848 290.469C161.663 290.469 161.481 290.561 161.299 290.743C161.299 290.928 161.343 291.017 161.436 291.017C161.525 290.928 161.618 290.88 161.711 290.88C161.893 290.791 162.03 290.743 162.123 290.743ZM163.908 258.274C163.634 257.818 163.448 257.589 163.359 257.589C163.084 257.681 162.947 257.911 162.947 258.274V258.548C162.947 259.007 162.854 259.326 162.672 259.507V260.192L162.81 260.467C163.084 260.467 163.266 260.422 163.359 260.33C163.908 259.6 164.09 258.915 163.908 258.274ZM165.968 264.026C165.694 263.937 165.508 263.889 165.419 263.889C165.33 263.889 165.233 264.026 165.144 264.3L164.87 264.711C164.32 265.171 163.997 265.626 163.908 266.082V266.493L164.32 267.178C164.502 267.178 164.732 267.041 165.007 266.767C165.096 266.585 165.215 266.334 165.352 266.015C165.49 265.697 165.605 265.445 165.697 265.263C166.061 264.626 166.154 264.215 165.972 264.03L165.968 264.026ZM164.458 256.218V255.807C164.272 255.807 164.183 255.855 164.183 255.944V256.355L164.458 256.218ZM164.732 274.579C164.732 274.49 164.684 274.442 164.595 274.442L164.32 274.716H164.458L164.595 274.853C164.684 274.764 164.732 274.671 164.732 274.579ZM168.99 270.33C169.079 270.056 169.127 269.782 169.127 269.508C169.127 269.145 169.034 269.008 168.852 269.097C168.76 269.189 168.648 269.282 168.507 269.371C168.37 269.463 168.255 269.508 168.166 269.508C167.706 269.601 167.386 269.326 167.204 268.686V268.412L166.93 268.549C166.655 268.915 166.332 269.463 165.968 270.193C165.783 270.378 165.738 270.538 165.831 270.675C165.92 270.812 166.106 270.834 166.38 270.741C166.744 270.741 166.974 270.878 167.067 271.152C167.249 271.519 167.431 271.838 167.616 272.112C168.073 272.478 168.44 272.297 168.715 271.564C168.897 271.015 168.99 270.604 168.99 270.33ZM166.243 262.385C166.15 262.385 166.013 262.478 165.831 262.659L166.38 263.07L166.518 262.659C166.518 262.478 166.425 262.385 166.243 262.385ZM166.106 277.183H166.243L166.106 277.045V277.183ZM169.402 248.41L168.44 248.136L167.616 248.958C166.881 249.507 166.495 249.873 166.451 250.055C166.403 250.24 166.566 250.696 166.93 251.425V251.562C167.019 251.747 167.182 251.814 167.409 251.77C167.635 251.725 167.798 251.61 167.887 251.425C167.976 251.244 168.114 251.036 168.299 250.81C168.481 250.584 168.596 250.399 168.645 250.262C168.689 250.125 168.667 249.873 168.574 249.51C168.574 249.421 168.711 249.236 168.986 248.962C168.986 248.873 169.123 248.688 169.398 248.414L169.402 248.41ZM166.93 265.674V265.537L166.792 265.4L166.655 265.537C166.744 265.63 166.837 265.674 166.93 265.674ZM169.402 264.304C169.491 264.03 169.446 263.804 169.265 263.619C169.172 263.437 168.942 263.345 168.578 263.345H168.303C167.661 263.619 167.294 263.804 167.204 263.893C167.112 264.167 167.294 264.352 167.754 264.441H168.028C168.118 264.533 168.255 264.578 168.44 264.578C168.626 264.578 168.76 264.626 168.852 264.715C169.216 264.715 169.402 264.578 169.402 264.304ZM169.265 261.152V261.015C168.99 260.833 168.578 260.833 168.028 261.015C167.936 261.015 167.798 261.063 167.616 261.152C167.431 261.244 167.294 261.289 167.204 261.289V261.563H168.028V261.7C168.578 261.518 168.99 261.337 169.265 261.152ZM168.166 259.781L168.44 259.37L168.166 259.096C167.98 259.096 167.891 259.189 167.891 259.37L168.166 259.781ZM168.715 268.137L169.677 267.589L169.539 267.315C169.539 267.226 169.491 267.178 169.402 267.178C169.034 267.089 168.76 267.226 168.578 267.589L168.715 267.863V268.137ZM170.363 243.614L170.501 243.476C170.501 243.388 170.452 243.339 170.363 243.339V243.614ZM172.973 249.369L172.835 249.232L172.698 249.507C172.787 249.507 172.835 249.462 172.835 249.369H172.973ZM185.329 305.266L185.055 305.403L184.917 305.129C185.006 305.04 185.144 304.992 185.329 304.992V305.266ZM188.626 296.636L188.351 296.773L188.488 296.91C188.577 296.821 188.626 296.728 188.626 296.636ZM197.412 290.198L197.549 290.335L197.412 290.472H197.274C197.274 290.383 197.319 290.291 197.412 290.198Z" fill="white"/>
<path d="M229.256 241.013C227.789 242.843 226.873 244.714 226.509 246.632C226.509 246.725 226.371 246.906 226.097 247.18C226.004 247.366 225.867 247.592 225.685 247.866C225.499 248.14 225.362 248.369 225.273 248.551L222.801 254.714C221.977 256.085 221.565 256.818 221.565 256.907C221.565 257.181 221.36 257.548 220.948 258.003C220.536 258.463 220.329 258.874 220.329 259.237C220.329 259.511 220.236 259.922 220.054 260.47C219.868 261.018 219.779 261.385 219.779 261.567C219.779 261.659 219.731 261.704 219.642 261.704C219.367 261.978 218.862 262.937 218.131 264.582C217.671 265.678 217.582 266.408 217.856 266.774C218.038 266.96 217.994 267.141 217.719 267.323C217.352 268.056 217.032 268.556 216.758 268.83C215.841 270.112 215.473 271.249 215.659 272.256C215.659 272.349 215.566 272.579 215.384 272.942C215.292 273.034 215.176 273.171 215.039 273.353C214.902 273.538 214.787 273.675 214.694 273.764C214.419 274.312 213.914 274.542 213.183 274.449C212.634 274.449 212.222 274.634 211.947 274.997C211.398 275.638 211.26 276.368 211.535 277.19C211.717 277.464 211.992 277.601 212.359 277.601C212.448 277.601 212.678 277.694 213.046 277.875C213.321 278.149 213.183 278.423 212.634 278.697L212.222 278.972C212.496 279.431 212.311 279.705 211.672 279.794C210.663 279.886 210.162 280.39 210.162 281.301C210.162 281.668 209.887 282.309 209.338 283.22C209.152 283.405 209.041 283.631 208.992 283.905C208.944 284.179 208.877 284.365 208.788 284.453C208.603 284.82 208.651 285.231 208.926 285.687C209.015 285.779 208.877 285.917 208.514 286.098C207.964 286.098 207.69 286.191 207.69 286.372C207.69 286.739 207.779 287.013 207.964 287.194C208.053 287.287 208.239 287.38 208.514 287.468L209.063 287.606C209.612 287.88 209.612 288.202 209.063 288.565C208.877 288.657 208.696 289.024 208.514 289.661C208.328 290.669 207.69 291.354 206.591 291.717C205.767 291.902 205.444 292.313 205.63 292.95C205.811 293.41 205.745 293.976 205.425 294.662C205.102 295.347 204.943 295.825 204.943 296.099L204.531 296.51L204.256 296.373C204.345 295.643 203.889 295.188 202.883 295.002C202.148 294.728 201.921 294.273 202.196 293.632V292.88C202.196 292.561 202.241 292.31 202.333 292.128C202.515 291.032 202.927 290.302 203.569 289.935C204.575 289.298 204.806 288.476 204.256 287.468H203.707C203.521 288.017 203.065 288.202 202.333 288.017C201.784 288.017 201.324 288.291 200.96 288.839C200.96 288.932 200.938 289.091 200.893 289.32C200.845 289.55 200.778 289.709 200.685 289.798C200.411 290.713 200.637 291.306 201.372 291.58C202.103 291.765 202.059 291.991 201.235 292.265C200.774 292.45 200.5 292.632 200.411 292.813L199.999 294.869C199.906 295.143 199.769 295.647 199.587 296.376C199.219 297.199 198.9 298.114 198.625 299.117C198.532 299.303 198.532 299.551 198.625 299.869C198.714 300.192 198.763 300.395 198.763 300.488C198.944 301.403 198.807 301.995 198.351 302.269C198.165 302.455 198.165 302.636 198.351 302.818C198.351 303.366 198.44 304.099 198.625 305.01C198.625 305.377 198.488 305.559 198.213 305.559C197.753 305.559 197.434 305.514 197.252 305.422C197.159 305.333 197.022 305.103 196.84 304.736C196.747 304.462 196.703 304.007 196.703 303.366C196.61 301.084 196.884 298.206 197.527 294.736C197.527 294.554 197.549 294.258 197.597 293.847C197.642 293.436 197.712 293.139 197.801 292.958H197.664C197.846 292.321 198.143 291.202 198.555 289.602C198.967 288.006 199.264 286.75 199.446 285.835C199.446 285.746 199.49 285.335 199.583 284.602C199.672 283.872 199.765 283.279 199.858 282.82C199.947 282.272 200.177 281.45 200.544 280.353C200.908 279.257 201.138 278.435 201.231 277.886C201.506 276.79 201.643 276.197 201.643 276.105C201.825 274.186 202.374 272.36 203.291 270.627C203.655 270.078 203.93 269.256 204.115 268.16C204.115 267.43 204.252 266.652 204.527 265.83C204.802 265.008 205.121 264.141 205.488 263.226C205.852 262.315 206.127 261.581 206.313 261.033C206.587 260.211 207.021 259.048 207.615 257.54C208.209 256.033 208.599 254.959 208.781 254.322C208.963 253.592 209.375 252.518 210.017 251.103C210.655 249.688 211.067 248.618 211.253 247.884C211.342 247.61 211.505 247.177 211.732 246.584C211.958 245.991 212.122 245.554 212.214 245.28C212.489 244.095 212.764 243.362 213.038 243.088C213.038 242.813 213.105 242.38 213.243 241.784C213.38 241.191 213.447 240.665 213.447 240.21C213.447 239.754 213.309 239.343 213.035 238.976C212.849 238.613 212.942 238.247 213.309 237.88C214.957 236.235 217.107 235.598 219.761 235.961C219.942 235.961 220.262 235.983 220.722 236.032C221.179 236.08 221.546 236.098 221.821 236.098L225.941 236.509C226.672 236.783 227.403 237.195 228.138 237.743C228.32 237.928 228.413 238.154 228.413 238.428C228.32 238.795 228.502 239.113 228.962 239.387C229.601 239.754 229.694 240.302 229.237 241.032L229.256 241.013ZM209.898 262.659C209.987 262.57 209.85 262.478 209.486 262.385C209.393 262.296 209.301 262.248 209.211 262.248L208.662 262.385C208.569 262.57 208.317 262.911 207.909 263.415C207.497 263.919 207.333 264.304 207.426 264.578C207.426 265.493 207.103 266.13 206.465 266.497C205.915 266.589 205.685 266.819 205.778 267.182C205.867 267.549 205.915 268.189 205.915 269.101C205.915 270.012 206.004 270.608 206.19 270.882C206.19 271.156 206.142 271.293 206.053 271.293C205.778 271.478 205.574 271.753 205.437 272.116C205.299 272.482 205.14 272.712 204.954 272.801C205.318 272.801 205.548 272.849 205.641 272.938C205.73 273.212 205.503 273.349 204.954 273.349C204.586 273.442 204.356 273.671 204.267 274.034C204.174 274.401 204.037 274.631 203.855 274.719C203.488 274.994 203.443 275.36 203.718 275.816C203.993 276.275 203.762 276.501 203.031 276.501C202.938 276.501 202.801 276.594 202.619 276.775C202.708 276.96 202.801 277.049 202.894 277.049C203.532 277.234 203.878 277.394 203.922 277.531C203.967 277.668 203.807 278.009 203.443 278.557C203.35 278.557 203.306 278.605 203.306 278.694C203.306 278.783 203.258 278.879 203.169 278.968C202.983 280.157 202.757 281.024 202.482 281.572L202.207 282.668C202.114 283.309 201.933 283.813 201.658 284.176C201.472 284.542 201.383 284.816 201.383 284.998C201.383 285.457 201.428 285.683 201.52 285.683C201.702 285.776 201.884 286.187 202.07 286.917C202.159 287.009 202.252 287.054 202.345 287.054C202.619 287.054 202.801 287.009 202.894 286.917C203.258 286.554 203.443 286.324 203.443 286.231C203.443 285.957 203.603 285.524 203.922 284.931C204.241 284.339 204.267 283.857 203.989 283.494C203.803 283.313 203.803 283.131 203.989 282.946C204.902 282.309 204.95 281.761 204.126 281.301C204.126 281.12 204.171 280.983 204.264 280.89C204.353 280.801 204.471 280.594 204.609 280.272C204.746 279.953 204.906 279.701 205.088 279.52C205.637 279.157 205.912 278.56 205.912 277.738C205.912 277.19 206.049 276.734 206.324 276.368C206.598 275.819 206.687 275.457 206.598 275.271C206.598 275.09 206.275 274.908 205.637 274.723C205.362 274.542 205.451 274.312 205.912 274.038C206.368 273.764 206.598 273.582 206.598 273.49C206.598 272.76 207.055 271.938 207.972 271.023C208.335 270.66 208.291 270.293 207.834 269.926C207.374 269.471 207.422 269.06 207.972 268.693C208.521 268.145 208.566 267.689 208.109 267.323C207.834 267.049 207.923 266.774 208.384 266.5L208.933 265.952C208.384 265.589 208.473 265.222 209.208 264.856C209.482 264.674 209.664 264.493 209.757 264.308C209.846 264.126 209.894 263.963 209.894 263.83V262.667L209.898 262.659ZM207.426 288.006C207.333 287.917 207.196 287.868 207.014 287.868C206.921 287.868 206.877 287.917 206.877 288.006C206.966 288.098 207.059 288.143 207.151 288.143C207.24 288.054 207.333 288.006 207.426 288.006ZM210.997 260.741C210.997 260.192 210.629 259.918 209.898 259.918C209.713 259.918 209.623 259.967 209.623 260.055C209.438 260.515 209.349 260.789 209.349 260.878C209.349 260.967 209.531 261.2 209.898 261.563C210.262 261.563 210.448 261.519 210.448 261.426C210.811 261.244 210.997 261.015 210.997 260.741ZM210.997 258.137V257.863C210.811 257.681 210.674 257.589 210.585 257.589C210.399 257.589 210.217 257.637 210.036 257.726L209.898 257.863C209.713 257.955 209.623 258.048 209.623 258.137C209.623 258.411 209.668 258.596 209.761 258.685C209.943 258.87 210.173 258.915 210.448 258.822L210.86 258.411C210.86 258.322 210.904 258.229 210.997 258.137ZM211.409 256.492L211.134 256.218L210.86 256.492L211.272 256.766C211.272 256.585 211.316 256.492 211.409 256.492ZM212.37 254.299V253.888C212.185 253.707 212.047 253.614 211.958 253.614C211.591 253.614 211.409 253.707 211.409 253.888C211.134 254.255 211.179 254.574 211.546 254.848C211.821 254.848 212.003 254.803 212.096 254.711C212.185 254.711 212.233 254.666 212.233 254.574L212.37 254.299Z" fill="white"/>
<path d="M276.897 256.085C277.172 256.451 277.035 256.814 276.485 257.181L276.211 257.318C276.025 257.411 275.936 257.503 275.936 257.592C274.47 258.6 273.646 259.192 273.464 259.374C273.371 259.466 273.141 259.604 272.777 259.785L272.64 259.922L272.777 260.059H273.327C273.965 260.059 274.24 260.152 274.151 260.333C274.151 260.518 274.013 260.607 273.739 260.607C273.464 260.607 273.278 260.655 273.189 260.744C272.822 261.018 272.454 261.204 272.09 261.293C271.723 261.385 271.289 261.452 270.788 261.496C270.283 261.544 269.941 261.611 269.759 261.704C268.293 261.889 267.195 262.07 266.463 262.252C266.189 262.252 265.958 262.3 265.777 262.389C265.134 262.848 263.806 263.167 261.794 263.348C260.509 263.441 258.635 263.485 256.163 263.485C255.977 263.485 255.614 263.508 255.064 263.552C254.515 263.6 254.147 263.622 253.965 263.622C253.231 263.622 252.317 263.533 251.219 263.348C251.033 263.348 250.714 263.326 250.257 263.282C249.797 263.237 249.433 263.215 249.159 263.215C248.06 263.215 247.418 263.763 247.236 264.859L246.824 266.093C246.638 266.46 246.549 266.734 246.549 266.915C246.274 267.737 245.862 269.063 245.313 270.89C245.313 271.075 245.22 271.256 245.038 271.438C244.489 272.078 244.303 272.808 244.489 273.63C244.578 273.816 244.489 274.134 244.214 274.59C243.754 275.138 243.16 275.96 242.429 277.057C242.336 277.242 242.292 277.516 242.292 277.879C242.292 277.971 242.336 278.086 242.429 278.223C242.518 278.36 242.566 278.475 242.566 278.564C242.748 278.931 242.704 279.298 242.429 279.661C242.243 279.846 242.062 280.12 241.88 280.483C241.33 282.038 241.056 282.905 241.056 283.087C241.056 283.179 240.918 284.094 240.644 285.828C240.644 286.194 240.551 286.65 240.369 287.198C240.183 287.472 239.957 287.976 239.682 288.706C239.408 289.439 239.177 289.939 238.996 290.213C238.721 290.672 238.491 291.358 238.309 292.269C238.309 292.635 238.287 293.139 238.238 293.776C238.19 294.417 238.123 294.921 238.034 295.284C238.034 295.925 238.216 296.291 238.584 296.38C238.765 296.38 238.947 296.473 239.133 296.654C239.133 296.839 239.085 296.928 238.996 296.928C238.903 297.021 238.765 297.065 238.584 297.065C238.309 297.158 238.123 297.34 238.034 297.614C237.941 297.706 237.804 297.936 237.622 298.299C237.437 298.666 237.299 298.895 237.21 298.984C237.025 299.258 236.98 299.443 237.073 299.532C237.162 299.717 236.98 300.129 236.523 300.766C236.249 301.314 236.156 301.636 236.249 301.725C236.338 301.91 236.338 302.229 236.249 302.684C236.156 303.144 236.201 303.462 236.386 303.644C236.201 303.918 236.019 304.329 235.837 304.877C235.651 305.425 235.469 305.836 235.287 306.11C234.92 306.84 234.738 307.57 234.738 308.303C234.827 308.759 234.738 309.307 234.463 309.948C234.189 310.859 234.326 311.5 234.875 311.866L235.15 312.141C235.15 312.229 235.172 312.322 235.217 312.415C235.261 312.504 235.284 312.596 235.284 312.689L234.734 313.237C234.274 313.693 233.498 314.104 232.4 314.47C231.757 314.744 231.163 314.744 230.614 314.47C230.429 314.285 230.109 314.104 229.653 313.922C229.193 313.737 228.829 313.555 228.554 313.374C228.279 313.189 227.912 313.189 227.455 313.374C226.539 313.648 225.759 313.555 225.121 313.1C224.935 313.007 224.753 312.87 224.571 312.689C224.111 312.504 223.699 312.504 223.335 312.689C222.786 312.87 222.188 312.733 221.55 312.278C221.182 312.092 220.819 311.5 220.451 310.496C220.265 309.855 220.176 308.214 220.176 305.562C220.176 305.107 220.247 304.351 220.384 303.303C220.522 302.255 220.588 301.684 220.588 301.592C221.045 299.125 221.364 297.436 221.55 296.521C222.006 294.147 222.326 292.732 222.511 292.272C222.693 291.91 223.105 290.491 223.747 288.024C223.836 287.935 223.974 287.706 224.159 287.339C224.341 286.976 224.709 286.791 225.258 286.791C225.533 286.976 225.577 287.202 225.395 287.476C225.028 287.843 224.983 288.117 225.258 288.298L224.983 289.257C224.434 290.539 224.252 291.543 224.434 292.272C224.616 292.639 224.523 292.869 224.159 292.958L223.885 293.232C223.885 293.417 223.792 293.736 223.61 294.191C223.424 294.65 223.38 295.013 223.473 295.288C223.562 295.38 223.517 295.517 223.335 295.699C223.061 296.339 222.968 296.843 223.061 297.206C223.061 297.48 223.012 297.665 222.923 297.754C222.738 298.028 222.649 298.488 222.649 299.125C222.556 299.673 222.511 300.406 222.511 301.318L222.374 301.455V301.729C221.914 302.462 221.824 303.099 222.099 303.647C222.099 303.74 222.121 303.855 222.166 303.992C222.211 304.129 222.281 304.244 222.37 304.333C222.645 304.607 222.645 304.929 222.37 305.292C222.095 305.748 222.277 306.114 222.919 306.388C223.376 305.748 223.651 305.385 223.744 305.292C224.107 304.744 224.337 304.333 224.43 304.059V303.647C224.98 303.099 224.98 302.599 224.43 302.14C224.337 302.051 224.315 301.958 224.363 301.866C224.408 301.777 224.523 301.684 224.709 301.592C224.983 301.318 225.072 301.136 224.983 301.043C224.89 300.588 225.072 299.673 225.533 298.303C225.714 297.94 225.807 297.617 225.807 297.343C225.896 297.254 225.896 297.069 225.807 296.795C225.715 296.521 225.715 296.339 225.807 296.247L226.631 295.013C226.72 294.832 226.813 294.602 226.906 294.328C226.995 294.054 227.043 293.828 227.043 293.643C227.318 293.006 227.775 292.639 228.417 292.547C228.966 292.547 229.515 292.41 230.065 292.135C230.521 291.772 230.889 291.772 231.164 292.135L231.301 291.998H231.576L231.713 291.861V291.587C231.345 290.765 230.703 290.539 229.79 290.902L228.142 291.724C227.867 291.91 227.455 291.91 226.906 291.724C226.631 291.45 226.676 291.087 227.043 290.628C227.132 290.539 227.27 290.309 227.455 289.943C227.73 289.58 227.73 289.213 227.455 288.846C227.27 288.665 227.363 288.483 227.73 288.298C228.094 288.024 228.279 287.75 228.279 287.476C228.461 286.928 228.554 286.517 228.554 286.242C228.736 285.513 228.966 284.965 229.241 284.598C229.515 284.235 229.515 283.868 229.241 283.502C228.966 282.953 229.148 282.268 229.79 281.446C229.972 281.172 229.972 280.946 229.79 280.761L230.065 280.212C230.614 279.664 230.889 279.116 230.889 278.568V278.431C231.527 277.609 231.85 277.108 231.85 276.923C231.85 276.56 231.757 276.012 231.576 275.279V274.593L231.713 274.319C232.077 274.138 232.262 273.771 232.262 273.223C232.169 272.586 232.537 272.127 233.361 271.853C233.543 271.671 233.725 271.578 233.91 271.578C234.092 271.49 234.207 271.49 234.255 271.578C234.3 271.671 234.278 271.808 234.189 271.99C234.096 272.449 234.189 272.675 234.463 272.675C234.552 272.586 234.716 272.538 234.946 272.538C235.176 272.538 235.336 272.493 235.425 272.401L236.111 271.715C236.2 271.534 236.063 271.441 235.699 271.441C235.15 271.078 234.783 270.941 234.601 271.03C233.959 271.123 233.639 270.893 233.639 270.345C233.639 269.889 233.591 269.523 233.502 269.249C233.502 268.793 233.728 268.519 234.189 268.426L234.463 268.289C234.645 268.2 234.738 268.063 234.738 267.878C234.645 267.604 234.738 267.378 235.013 267.193C235.287 266.919 235.287 266.737 235.013 266.645C234.827 266.645 234.69 266.6 234.601 266.508C234.233 266.326 234.14 266.097 234.326 265.823C234.875 264.911 235.287 264.315 235.562 264.041C236.475 263.404 236.705 262.67 236.249 261.848C235.788 261.393 235.744 261.074 236.111 260.889C236.475 260.526 236.475 260.067 236.111 259.518V259.244C236.293 258.97 236.475 258.607 236.661 258.148C236.843 257.692 237.025 257.374 237.21 257.189C237.574 257.007 237.826 256.711 237.964 256.3C238.101 255.888 238.216 255.637 238.309 255.548C238.216 254.911 238.535 254.04 239.27 252.944C239.452 252.581 239.452 252.307 239.27 252.122C238.903 251.759 238.903 251.255 239.27 250.614C239.82 249.703 240.183 249.018 240.369 248.558C240.644 248.103 240.551 247.873 240.094 247.873C239.909 247.784 239.612 247.714 239.203 247.669C238.791 247.625 238.494 247.603 238.313 247.603C237.945 247.603 237.763 247.788 237.763 248.151C237.763 248.336 237.808 248.518 237.901 248.699C238.082 248.973 237.945 249.203 237.489 249.384C237.121 249.57 236.939 249.751 236.939 249.932C236.939 250.025 236.917 250.255 236.872 250.618C236.824 250.984 236.806 251.214 236.806 251.303C236.806 252.218 236.531 252.996 235.981 253.633C235.614 253.999 235.477 254.274 235.569 254.455V255.14C235.384 256.055 235.614 256.555 236.256 256.648L236.394 256.785L235.981 257.196C235.981 257.289 235.889 257.333 235.707 257.333L235.295 257.47C235.02 257.47 234.835 257.563 234.745 257.744V258.566C234.745 258.933 234.471 259.163 233.921 259.252C233.647 259.437 233.443 259.481 233.305 259.389C233.168 259.3 233.146 259.115 233.238 258.841L233.65 256.785C234.107 255.507 234.289 254.685 234.2 254.318C234.2 254.044 234.244 253.862 234.337 253.77C234.426 253.496 234.612 253.085 234.886 252.536C235.161 251.988 235.343 251.577 235.436 251.303C235.8 250.666 235.985 249.981 235.985 249.247C235.985 248.884 236.167 248.518 236.535 248.151C236.716 248.062 236.809 247.877 236.809 247.603C236.716 246.692 237.036 245.41 237.771 243.765C238.32 242.306 238.777 241.254 239.144 240.613C239.144 240.25 239.189 239.976 239.281 239.791C239.281 239.61 239.304 239.428 239.348 239.243C239.393 239.061 239.415 238.924 239.415 238.832C239.69 238.284 239.827 238.513 239.827 239.517C239.827 239.976 239.779 240.706 239.69 241.71V243.08L239.827 242.532C240.191 241.254 240.465 240.339 240.651 239.791C240.651 239.517 240.74 239.198 240.926 238.832C241.382 237.921 241.612 237.372 241.612 237.187C241.701 236.55 242.002 235.591 242.503 234.309C243.004 233.031 243.35 232.165 243.535 231.705C243.992 230.794 244.222 230.198 244.222 229.924C244.222 229.65 244.448 228.92 244.909 227.731C244.909 227.549 244.998 227.275 245.183 226.909C245.822 225.998 246.145 224.99 246.145 223.894C246.234 223.438 246.419 223.12 246.694 222.934C247.518 221.838 248.294 221.016 249.029 220.467C249.942 219.83 250.766 219.464 251.501 219.371C252.05 219.371 252.689 219.234 253.424 218.96C253.973 218.778 254.474 218.778 254.934 218.96C256.308 219.601 257.083 220.056 257.269 220.33C257.451 220.605 257.77 220.742 258.23 220.742C258.505 220.742 259.006 220.719 259.741 220.675C260.472 220.63 260.977 220.608 261.252 220.608H261.939C262.577 220.701 263.538 220.93 264.823 221.293C265.279 221.479 265.691 221.479 266.059 221.293C266.241 221.205 266.608 221.156 267.157 221.156C267.889 221.156 268.393 221.205 268.668 221.293C269.125 221.293 269.63 221.386 270.179 221.568H270.591C270.866 221.479 271.229 221.479 271.69 221.568C272.146 221.66 272.465 221.705 272.651 221.705C273.382 221.705 274.091 221.771 274.778 221.908C275.465 222.045 276.24 222.275 277.113 222.594C277.981 222.916 278.601 223.12 278.965 223.208C279.603 223.394 280.108 223.712 280.476 224.168C280.565 224.353 280.728 224.579 280.954 224.853C281.181 225.127 281.344 225.312 281.433 225.401C281.708 225.675 281.845 225.997 281.845 226.36C281.934 226.909 281.571 227.549 280.747 228.279C280.015 228.738 279.418 228.875 278.961 228.69C278.776 228.601 278.364 228.646 277.725 228.827C277.45 229.013 277.22 229.238 277.038 229.513C276.578 230.242 275.891 230.976 274.978 231.705C274.978 231.798 274.885 231.935 274.704 232.116C274.518 232.302 274.429 232.439 274.429 232.528C274.243 232.894 273.857 233.35 273.263 233.898C272.666 234.446 272.324 234.813 272.232 234.994C271.957 235.361 271.727 235.317 271.545 234.857C271.359 233.946 271.452 233.031 271.819 232.116L272.232 230.472C272.232 230.383 272.276 230.246 272.369 230.061C272.458 229.879 272.506 229.742 272.506 229.65C272.688 229.194 272.733 228.92 272.644 228.827C272.094 227.824 271.452 227.32 270.721 227.32C270.628 227.32 269.347 227.183 266.875 226.909C265.684 226.909 264.815 226.864 264.266 226.772C263.898 226.772 263.716 226.957 263.716 227.32C263.624 227.687 263.486 228.142 263.304 228.69C263.119 229.238 262.844 229.65 262.48 229.924C261.931 230.472 261.519 231.068 261.244 231.705C260.877 232.802 260.509 233.624 260.146 234.172C259.96 234.539 259.871 234.768 259.871 234.857C259.778 235.317 259.411 236.32 258.772 237.872C258.68 237.965 258.542 238.146 258.36 238.421C258.175 238.695 258.086 238.924 258.086 239.106C257.9 239.654 257.603 240.387 257.195 241.299C256.783 242.213 256.53 242.899 256.441 243.354C256.256 243.995 256.029 244.451 255.755 244.725C255.755 244.817 255.706 244.862 255.617 244.862C256.348 241.117 256.579 238.787 256.304 237.872C256.118 238.058 256.029 238.284 256.029 238.558C256.118 238.924 255.936 239.747 255.48 241.024C255.205 241.847 255.112 242.58 255.205 243.217C255.205 243.947 255.02 244.543 254.656 244.999C253.832 246.188 253.42 246.966 253.42 247.329C253.42 247.603 253.327 247.74 253.145 247.74C252.87 248.014 252.733 248.336 252.733 248.699C252.64 249.432 252.136 251.121 251.222 253.77C250.673 255.233 250.213 256.329 249.849 257.059C249.663 257.333 249.756 257.563 250.124 257.744C250.487 258.018 251.037 258.066 251.772 257.881C252.135 257.7 252.822 257.7 253.832 257.881H255.48C255.755 257.792 256.167 257.744 256.716 257.744C257.265 257.744 257.677 257.7 257.952 257.607C259.782 257.607 261.385 257.381 262.759 256.922C263.215 256.74 263.49 256.696 263.583 256.785C263.765 256.877 264.863 256.785 266.879 256.511C267.428 256.422 268.252 256.192 269.351 255.826C269.808 255.644 270.175 255.644 270.45 255.826C270.724 255.918 271.044 255.918 271.411 255.826L274.295 255.003H274.707C275.439 255.188 275.988 255.37 276.355 255.551L276.905 256.1L276.897 256.085ZM224.311 308.97C224.493 308.877 224.493 308.74 224.311 308.559V308.285C224.219 308.1 224.174 307.962 224.174 307.874C224.174 307.233 223.762 306.729 222.938 306.366C222.845 306.548 222.708 306.729 222.526 306.914C222.066 307.37 221.884 307.825 221.977 308.285C221.977 308.466 222.092 308.785 222.318 309.244C222.545 309.7 222.663 310.066 222.663 310.34C222.663 310.522 222.752 310.615 222.938 310.615C223.124 310.615 223.257 310.522 223.35 310.34C223.625 310.066 223.762 309.881 223.762 309.792C223.762 309.333 223.944 309.059 224.311 308.97ZM228.02 278.827C227.103 280.198 226.735 281.705 226.921 283.35C226.921 283.898 226.828 284.309 226.646 284.583C226.186 285.042 225.867 285.405 225.685 285.679C225.499 285.865 225.317 285.954 225.135 285.954C224.954 285.954 224.861 285.865 224.861 285.679C224.768 284.857 224.861 283.898 225.135 282.801C225.41 281.979 225.592 281.479 225.685 281.294H225.547C225.637 280.931 226.004 280.016 226.646 278.553L227.196 278.005C227.285 277.916 227.422 277.868 227.608 277.868C227.697 277.96 227.789 278.053 227.882 278.142C227.971 278.234 228.064 278.327 228.157 278.416C228.246 278.509 228.201 278.646 228.02 278.827ZM228.02 300.336C228.02 300.062 227.789 300.017 227.333 300.199C226.965 300.384 226.646 300.521 226.371 300.61V300.884C226.461 300.884 226.598 300.932 226.783 301.021H227.333C227.608 300.84 227.834 300.61 228.02 300.336ZM233.097 261.837L232.96 262.385C232.593 263.574 232.455 264.259 232.548 264.441C232.73 264.626 232.685 264.852 232.411 265.126C232.136 265.219 231.906 265.63 231.724 266.36C231.264 267.73 230.945 268.597 230.763 268.963C230.577 269.786 230.532 270.289 230.625 270.471C230.714 270.838 230.625 271.156 230.351 271.43C229.89 271.797 229.753 272.116 229.939 272.39C230.12 272.575 230.12 272.756 229.939 272.938C229.846 273.304 229.664 273.671 229.389 274.034C229.022 274.949 228.84 275.542 228.84 275.816C228.84 276.09 228.654 276.412 228.291 276.775C228.105 276.96 227.901 277.005 227.674 276.912C227.444 276.823 227.377 276.686 227.466 276.501C227.466 275.497 227.604 274.812 227.878 274.445C227.878 274.171 228.06 273.693 228.428 273.008C228.792 272.323 228.977 271.797 228.977 271.434V271.297C229.434 270.66 229.753 269.745 229.939 268.556C230.12 267.371 230.258 266.637 230.351 266.363C230.351 266.274 230.395 266.111 230.488 265.882C230.577 265.656 230.67 265.497 230.763 265.404C230.763 265.315 230.852 265.178 231.037 264.993C231.126 264.904 231.175 264.811 231.175 264.719C231.357 263.808 231.631 263.167 231.999 262.8V262.115C231.999 261.752 232.136 261.522 232.411 261.43C232.774 261.248 233.005 261.204 233.097 261.293V261.841V261.837ZM227.878 297.047H227.741L227.604 297.184V297.321L227.878 297.047ZM230.076 297.869L229.939 297.732H228.565L228.016 298.006L227.878 298.28L228.016 298.417C228.105 298.417 228.242 298.395 228.428 298.351C228.61 298.306 228.747 298.284 228.84 298.284C229.296 298.284 229.616 298.24 229.801 298.147C229.983 298.147 230.076 298.058 230.076 297.873V297.869ZM230.076 293.347L230.351 293.21L230.213 293.073H230.076C229.983 293.165 229.89 293.21 229.801 293.21L230.076 293.347ZM230.076 294.717H230.213V294.58L230.076 294.717ZM230.9 285.813L231.037 285.539L230.9 285.676V285.813ZM236.531 283.209C236.071 282.846 235.432 282.89 234.608 283.346C233.509 283.894 232.685 283.942 232.136 283.483C231.95 283.301 231.769 283.301 231.587 283.483C231.494 283.576 231.538 283.713 231.724 283.894C231.813 284.168 232.088 284.305 232.548 284.305C233.554 284.031 234.423 283.942 235.157 284.031C235.707 284.216 236.163 283.942 236.531 283.209ZM232.823 297.047C232.823 297.14 232.73 297.232 232.548 297.321L232.273 297.458H232.136L231.999 297.595H232.411C232.593 297.414 232.73 297.232 232.823 297.047ZM232.548 301.84V301.566C232.362 301.751 232.225 301.84 232.136 301.84C232.225 301.932 232.273 302.025 232.273 302.114L232.548 301.84ZM232.548 270.467L232.685 270.604V270.741L232.548 270.604V270.467ZM232.823 300.473V300.199H232.685L232.823 300.473ZM234.745 296.225L234.333 296.088C233.784 296.18 233.324 296.499 232.96 297.047C233.417 297.047 233.873 296.91 234.333 296.636C234.608 296.636 234.745 296.499 234.745 296.225ZM233.784 277.32V277.183L233.647 276.908H233.509L233.784 277.32ZM234.745 281.842V281.568H234.608C234.515 281.479 234.423 281.431 234.333 281.431H233.921L234.059 281.568L234.608 281.842H234.745ZM236.806 274.582C237.444 273.945 237.355 273.579 236.531 273.486C236.438 273.486 236.345 273.464 236.256 273.419C236.163 273.375 236.071 273.353 235.981 273.353C235.707 273.264 235.339 273.308 234.883 273.49C234.423 273.675 234.333 273.901 234.608 274.175C234.883 274.36 234.79 274.679 234.333 275.134C234.148 275.134 234.059 275.227 234.059 275.408C234.059 275.501 234.081 275.545 234.126 275.545C234.17 275.545 234.192 275.594 234.192 275.682C235.291 275.501 235.885 275.364 235.978 275.271C236.067 275.271 236.342 275.045 236.802 274.586L236.806 274.582ZM234.608 268.83L234.745 268.693H234.608V268.83ZM235.844 291.572L236.119 291.435V291.161L235.707 291.298L235.844 291.572ZM238.728 267.734V267.597C238.454 267.508 238.042 267.46 237.492 267.46C236.943 267.645 236.531 267.826 236.256 268.008C236.163 268.193 236.119 268.33 236.119 268.419C236.208 268.512 236.256 268.512 236.256 268.419C236.62 268.419 237.355 268.33 238.454 268.145C238.454 268.056 238.543 267.919 238.728 267.734ZM237.355 282.805H237.218C237.218 282.898 237.125 282.99 236.943 283.079L236.668 283.216L236.943 283.079L237.218 282.942L237.355 282.805ZM239.964 264.856C239.964 264.674 239.827 264.582 239.552 264.582H237.63C237.08 264.582 236.806 264.856 236.806 265.404C236.806 265.678 237.032 265.815 237.492 265.815C237.581 265.815 237.856 265.748 238.316 265.611C238.773 265.474 239.14 265.36 239.415 265.267L239.69 265.13C239.872 265.041 239.964 264.948 239.964 264.856ZM238.866 276.501V276.364H237.904C237.811 276.364 237.63 276.501 237.355 276.775C237.169 276.96 237.262 277.049 237.63 277.049H237.904C238.086 277.049 238.361 276.96 238.728 276.775C238.817 276.775 238.866 276.686 238.866 276.501ZM239.69 261.567C239.322 261.385 239.047 261.293 238.866 261.293C238.591 261.111 238.316 261.293 238.042 261.841L237.767 262.252L237.63 262.663C237.444 263.122 237.537 263.348 237.904 263.348C238.361 263.348 238.591 263.167 238.591 262.8C238.68 262.437 238.955 262.115 239.415 261.841L239.69 261.567ZM238.179 270.197C238.179 270.108 238.131 270.06 238.042 270.06L237.767 270.334L237.904 270.471L238.179 270.197ZM239.415 272.664C239.504 272.482 239.552 272.253 239.552 271.978C239.46 271.89 239.278 271.841 239.003 271.841C238.728 271.841 238.68 272.027 238.866 272.39C238.866 272.482 238.91 272.527 239.003 272.527L239.14 272.801H239.415V272.664ZM240.102 271.156C240.191 270.975 240.217 270.793 240.168 270.608C240.12 270.427 240.009 270.382 239.823 270.471C239.73 270.471 239.593 270.564 239.411 270.745C239.044 271.112 239.137 271.293 239.686 271.293C239.868 271.293 240.005 271.249 240.098 271.156H240.102ZM241.887 254.303C241.427 254.214 240.833 254.351 240.102 254.714L239.827 254.851L239.69 254.988V255.263C239.964 255.355 240.284 255.674 240.651 256.222C240.651 256.314 240.718 256.359 240.859 256.359C241 256.359 241.108 256.314 241.2 256.222C242.024 255.125 242.251 254.488 241.887 254.303ZM239.964 253.755H240.102V253.618L239.964 253.755ZM241.887 267.319C241.612 267.045 241.338 266.863 241.063 266.771C240.97 266.682 240.811 266.748 240.584 266.978C240.354 267.208 240.194 267.411 240.105 267.593C240.105 267.686 240.15 267.73 240.243 267.73C240.332 267.823 240.562 267.867 240.929 267.867C241.204 267.867 241.431 267.823 241.616 267.73L241.891 267.319H241.887ZM245.87 246.221C245.959 245.947 245.959 245.766 245.87 245.673C245.777 245.673 245.595 245.584 245.321 245.399C245.046 245.217 244.86 245.125 244.771 245.125C244.496 244.943 244.222 244.988 243.947 245.262L243.672 245.399C243.672 245.584 243.717 245.673 243.81 245.673C244.174 245.858 244.496 245.947 244.771 245.947V246.221L244.634 246.358C244.359 246.358 244.129 246.543 243.947 246.906C243.947 247.18 243.854 247.273 243.672 247.18C243.487 246.999 243.35 247.092 243.26 247.455C243.26 247.547 243.212 247.64 243.123 247.729C243.034 247.818 242.986 247.914 242.986 248.003C242.8 248.188 242.596 248.481 242.37 248.892C242.139 249.303 241.98 249.555 241.891 249.644C241.523 250.103 241.249 250.74 241.067 251.562C241.067 251.655 241.018 251.884 240.929 252.247C240.837 252.614 240.744 252.844 240.655 252.933C240.655 253.207 240.792 253.255 241.067 253.07C241.431 252.888 241.843 252.614 242.303 252.247C242.941 251.61 243.446 251.288 243.814 251.288C244.181 251.288 244.452 251.062 244.638 250.603C244.727 250.514 244.864 250.284 245.05 249.918L245.187 249.781H244.912C244.545 249.966 244.315 250.055 244.226 250.055C243.858 250.055 243.628 250.01 243.539 249.918V248.684C243.539 248.503 243.676 248.321 243.951 248.136C244.226 247.862 244.407 247.725 244.5 247.725C244.682 247.636 245.139 247.132 245.874 246.217L245.87 246.221ZM241.063 264.993L241.338 264.856V264.719L240.926 264.856L241.063 264.993ZM243.26 240.743L243.123 239.51H242.986C242.8 239.784 242.8 239.969 242.986 240.058C243.26 240.243 243.168 240.469 242.711 240.743C242.251 241.202 242.162 241.613 242.436 241.976C242.618 242.25 242.526 242.573 242.162 242.936C241.976 243.121 241.887 243.347 241.887 243.621V243.484L242.574 242.799C242.663 242.799 242.733 242.754 242.778 242.662C242.822 242.573 242.8 242.48 242.711 242.388C242.526 242.299 242.526 242.091 242.711 241.769C242.893 241.45 242.986 241.243 242.986 241.154C242.986 240.88 243.075 240.743 243.26 240.743ZM243.26 268.556C243.26 268.375 243.075 268.282 242.711 268.282L242.162 268.556C242.069 268.649 242.024 268.741 242.024 268.83L242.162 268.967H242.299C242.388 268.967 242.436 269.015 242.436 269.104H242.711C243.075 268.923 243.26 268.741 243.26 268.556ZM242.711 245.128C242.344 245.677 242.206 246.088 242.299 246.362L242.711 245.128ZM242.711 262.667L242.848 262.53C242.756 262.53 242.663 262.578 242.574 262.667H242.711ZM244.909 238.28C244.998 238.191 244.998 238.143 244.909 238.143L244.771 238.006L244.497 238.143C244.497 238.235 244.129 238.739 243.398 239.65C243.398 239.835 243.442 239.924 243.535 239.924C244.084 240.11 244.448 239.88 244.634 239.239C244.723 239.15 244.771 239.058 244.771 238.965C244.771 238.872 244.793 238.758 244.842 238.621C244.886 238.484 244.909 238.369 244.909 238.276V238.28ZM244.222 264.037L244.084 263.763C243.899 263.763 243.762 263.811 243.672 263.9C243.762 263.993 243.854 264.037 243.947 264.037H244.222ZM246.831 241.843C246.92 241.754 246.876 241.617 246.694 241.432L246.145 241.158C245.595 241.158 245.183 241.295 244.909 241.569C244.816 241.662 244.701 241.821 244.563 242.047C244.426 242.276 244.311 242.436 244.218 242.525C244.125 242.617 244.081 242.799 244.081 243.073L244.493 243.484C244.857 243.669 245.087 243.576 245.179 243.21C245.454 242.754 245.866 242.436 246.416 242.25C246.69 242.25 246.828 242.113 246.828 241.839L246.831 241.843ZM245.458 253.625C245.458 253.444 245.365 253.351 245.183 253.351C244.723 253.17 244.497 253.307 244.497 253.762L244.909 254.174L245.458 253.625ZM246.145 240.061C246.052 240.061 245.914 239.973 245.733 239.787L245.595 239.924C245.502 240.017 245.502 240.11 245.595 240.198C245.684 240.291 245.777 240.336 245.87 240.336L246.145 240.061ZM247.793 239.65V239.376C247.7 239.287 247.585 239.31 247.447 239.447C247.31 239.584 247.24 239.698 247.24 239.791L247.377 239.928L247.514 239.791C247.603 239.702 247.696 239.654 247.789 239.654L247.793 239.65ZM247.381 241.021V240.884H247.243V241.158L247.381 241.021Z" fill="white"/>
<path d="M318.225 289.38C317.49 290.476 316.941 291.254 316.577 291.709C315.478 292.806 314.424 294.45 313.418 296.643C312.958 297.558 312.364 298.151 311.633 298.425C310.809 298.699 309.688 299.34 308.27 300.343C306.852 301.351 306.006 301.944 305.731 302.125L304.77 303.084C304.22 304.273 303.122 305.096 301.474 305.551C300.282 305.914 299.595 306.555 299.413 307.47C299.413 308.018 299.139 308.107 298.589 307.744C298.129 307.47 297.673 307.559 297.216 308.018C296.117 308.929 294.651 309.388 292.821 309.388C292.636 309.388 291.448 309.526 289.25 309.8C286.504 309.8 284.536 309.614 283.345 309.251C281.697 308.792 280.735 308.611 280.461 308.703C280.093 308.792 279.637 308.655 279.087 308.292C278.538 307.925 277.484 307.311 275.928 306.444C274.37 305.577 273.226 304.87 272.495 304.318C269.841 302.584 268.1 300.573 267.276 298.288C266.359 295.821 266.04 293.173 266.315 290.343L266.177 287.876C266.177 286.324 266.359 285.546 266.727 285.546C267.091 284.724 267.458 284.45 267.825 284.724C268.189 284.816 268.445 284.839 268.579 284.79C268.716 284.746 268.924 284.631 269.195 284.45C269.47 284.268 269.652 284.176 269.745 284.176C270.201 283.902 270.431 283.539 270.431 283.079C270.52 282.531 270.246 282.257 269.607 282.257C268.69 283.353 268.004 283.676 267.547 283.216C267.362 283.035 267.272 282.805 267.272 282.531L268.508 277.186C268.598 276.823 268.735 276.364 268.92 275.816C269.284 274.719 269.514 273.897 269.607 273.349C269.882 271.89 270.019 271.112 270.019 271.019C271.3 267.182 272.306 264.352 273.041 262.526C273.404 261.615 273.727 260.93 274.002 260.47C275.557 258.278 276.701 255.722 277.436 252.799C277.617 252.251 277.799 251.84 277.985 251.566C278.074 251.384 279.908 247.866 283.475 241.017C284.024 239.921 284.388 239.098 284.573 238.55C285.305 236.998 286.953 234.624 289.518 231.427C289.974 230.79 290.754 230.035 291.852 229.168C292.951 228.301 293.59 227.824 293.775 227.731C294.232 227.731 294.963 227.594 295.973 227.32C296.978 227.046 297.758 226.957 298.307 227.046C301.143 227.594 303.526 228.827 305.449 230.746C305.905 231.205 306.136 231.798 306.136 232.528C306.043 233.076 306.087 233.557 306.273 233.968C306.455 234.38 306.637 234.676 306.822 234.857C307.004 235.043 307.346 235.291 307.854 235.609C308.355 235.932 308.656 236.135 308.745 236.228C309.109 236.413 309.432 236.413 309.706 236.228C310.712 236.046 312.223 235.68 314.239 235.131C314.97 234.95 316.113 234.631 317.672 234.172C319.227 233.717 320.371 233.398 321.106 233.213C321.655 233.124 323.21 233.076 325.775 233.076C327.056 233.261 327.33 233.991 326.599 235.269C326.599 235.361 326.414 235.613 326.05 236.02C325.682 236.432 325.408 236.772 325.226 237.046C324.858 237.595 324.034 238.328 322.754 239.239C321.469 240.154 320.645 241.021 320.282 241.843C318.908 242.851 317.397 243.488 315.749 243.762C314.558 244.036 313.322 244.447 312.041 244.995C310.3 245.817 308.656 246.277 307.097 246.366C306.73 246.458 305.768 246.277 304.213 245.817C303.389 245.636 302.654 245.954 302.015 246.777L301.603 247.188C301.418 247.373 301.329 247.51 301.329 247.599C301.143 248.332 300.687 249.31 299.955 250.544C299.22 251.777 298.764 252.577 298.582 252.94C296.934 255.863 295.742 258.055 295.011 259.518C294.736 259.792 294.599 260.115 294.599 260.478C294.232 261.667 293.82 262.489 293.363 262.944C292.446 263.859 291.804 265.319 291.44 267.33C291.348 267.878 291.374 268.2 291.507 268.289C291.645 268.382 291.941 268.382 292.402 268.289C292.765 268.2 294.094 267.856 296.385 267.263C298.671 266.671 300.412 266.189 301.603 265.822C302.427 265.641 303.548 265.274 304.966 264.726C306.384 264.178 307.323 263.815 307.78 263.63C308.968 263.174 310.297 262.719 311.763 262.259C312.312 262.078 312.724 261.896 312.999 261.711C313.455 261.348 313.979 261.026 314.576 260.752C315.17 260.478 315.857 260.252 316.636 260.067C317.412 259.885 317.988 259.704 318.351 259.518C319.357 259.155 320.111 259.266 320.616 259.859C321.117 260.455 321.143 261.252 320.682 262.256C320.497 262.715 320.204 263.445 319.792 264.448C319.38 265.456 319.083 266.23 318.901 266.778C318.533 267.419 317.939 268.012 317.115 268.56C314.732 269.656 313.27 270.297 312.72 270.478C310.523 271.393 309.194 272.03 308.738 272.397C308.463 272.397 307.639 272.627 306.266 273.082C304.892 273.542 303.793 273.679 302.969 273.493C301.41 273.13 298.712 273.63 294.87 275.001C294.046 275.275 293.311 275.412 292.673 275.412C292.212 275.412 290.702 275.642 288.141 276.097C287.773 276.282 287.498 276.557 287.316 276.92C287.131 277.379 286.882 278.038 286.563 278.905C286.24 279.775 285.991 280.435 285.809 280.89C285.809 281.075 285.787 281.301 285.743 281.575C285.694 281.85 285.628 282.079 285.539 282.261C284.896 283.083 284.392 284.772 284.028 287.328C283.842 288.424 283.567 289.432 283.204 290.343C282.194 292.991 281.83 296.006 282.105 299.384C282.287 300.117 282.38 300.618 282.38 300.892C282.562 301.899 282.859 302.536 283.271 302.81C283.683 303.084 284.436 303.084 285.535 302.81C286.815 302.536 288.645 301.944 291.025 301.029C294.87 299.569 297.342 298.562 298.441 298.014C301.919 296.369 306.173 294.176 311.21 291.435C314.413 289.791 316.518 288.787 317.527 288.42C317.984 288.239 318.214 288.283 318.214 288.557C318.396 288.924 318.396 289.198 318.214 289.38H318.225ZM271.133 290.339C271.133 290.065 271.018 289.906 270.788 289.857C270.557 289.813 270.353 289.813 270.171 289.857C269.986 289.906 269.804 289.88 269.622 289.791C269.255 289.609 268.935 289.517 268.661 289.517C268.2 289.517 267.881 289.609 267.699 289.791C267.239 289.976 267.013 290.202 267.013 290.476L267.425 291.298C267.699 291.298 267.881 291.254 267.974 291.161C268.338 291.072 268.594 291.072 268.727 291.161C268.865 291.254 268.887 291.484 268.794 291.847C268.794 292.213 269.021 292.395 269.481 292.395L270.717 291.984C270.717 291.895 270.739 291.758 270.784 291.572C270.828 291.391 270.873 291.232 270.921 291.095C270.966 290.958 271.01 290.821 271.059 290.683C271.103 290.546 271.125 290.435 271.125 290.343L271.133 290.339ZM283.902 252.936C283.902 252.847 283.835 252.777 283.694 252.733C283.556 252.688 283.397 252.618 283.215 252.529C283.029 252.44 282.892 252.347 282.803 252.255L282.391 251.844H281.841C281.656 252.118 281.429 252.573 281.155 253.214C280.88 253.855 280.65 254.359 280.468 254.722C280.193 255.362 279.826 255.774 279.369 255.955C278.545 256.414 278.408 256.914 278.957 257.463C279.321 257.829 279.232 258.103 278.683 258.285C278.315 258.378 277.974 258.537 277.651 258.763C277.328 258.992 276.986 259.289 276.619 259.652C276.251 260.015 275.977 260.292 275.795 260.474C275.427 260.841 275.246 261.296 275.246 261.844L274.833 267.189C274.833 267.649 274.511 267.874 273.872 267.874V269.793L273.735 270.067C273.367 270.067 273.137 270.023 273.048 269.93C272.862 269.841 272.681 269.704 272.499 269.519C272.499 269.612 272.432 269.771 272.291 269.997C272.154 270.226 272.087 270.386 272.087 270.478V272.945C272.087 273.13 272.02 273.404 271.883 273.767C271.745 274.134 271.675 274.43 271.675 274.656C271.675 274.882 271.812 275.09 272.087 275.271C271.994 275.456 271.812 275.705 271.537 276.023C271.263 276.345 271.077 276.594 270.988 276.775C270.802 277.69 270.164 278.694 269.065 279.79C268.148 280.705 268.33 281.483 269.615 282.12C270.713 281.664 271.352 280.979 271.537 280.064C272.087 278.605 272.818 277.553 273.735 276.912C273.824 276.912 274.054 276.823 274.421 276.638C274.785 276.457 275.015 276.275 275.108 276.09L274.696 274.856C274.696 274.034 274.785 273.442 274.971 273.075C275.795 271.704 276.207 270.334 276.207 268.963C276.207 267.686 276.801 266.726 277.992 266.085C278.998 265.537 279.592 264.715 279.778 263.619C279.867 263.345 279.96 262.982 280.052 262.522C280.141 262.067 280.19 261.7 280.19 261.426C280.19 261.152 280.279 260.741 280.464 260.192C281.745 257.177 282.706 255.259 283.348 254.437C283.805 253.614 283.987 253.114 283.898 252.929L283.902 252.936ZM270.446 293.491C270.535 293.402 270.583 293.173 270.583 292.806C270.583 292.439 270.628 292.213 270.721 292.121C270.353 292.669 270.123 293.08 270.034 293.354C269.941 293.447 269.986 293.584 270.171 293.765L270.446 293.491ZM270.171 296.78L270.583 296.506L270.446 295.958L270.034 296.369L270.171 296.78ZM273.88 267.871L273.742 267.734C273.649 267.552 273.557 267.46 273.468 267.46C273.193 267.371 272.87 267.415 272.506 267.597C272.413 267.597 272.369 267.645 272.369 267.734L272.231 268.008C272.688 268.193 273.007 268.237 273.193 268.145C273.282 268.145 273.512 268.056 273.88 267.871ZM283.215 251.429H282.803L282.528 251.703H282.803C282.892 251.703 282.94 251.659 282.94 251.566L283.215 251.429ZM298.593 306.092L298.456 306.229L298.593 306.092Z" fill="white"/>
</svg>
